<svg id="Calque_1" xmlns="http://www.w3.org/2000/svg" xmlns:xlink="http://www.w3.org/1999/xlink" viewBox="0 0 110 110"><style>.st1,.st2{fill:#cc2826}.st2{stroke:#cc2826;stroke-width:.4812;stroke-linecap:round;stroke-linejoin:round;stroke-miterlimit:10}</style><defs><path id="SVGID_1_" d="M26.9 32.1h52.5v52.5H26.9z"/></defs><clipPath id="SVGID_2_"><use xlink:href="#SVGID_1_" overflow="visible"/></clipPath><circle cx="55.1" cy="54.9" r="38.6" fill="none"/><path class="st1" d="M28.8 77.1l.8.8-1 4 2.5-2.4.7.7-3.4 3.3-.8-.8.9-4-2.5 2.4-.7-.7 3.5-3.3zM34.4 82.2c1.2.9 1.6 2.5.7 3.7-.8 1.1-2.5 1.2-3.7.3-1.2-.9-1.6-2.6-.7-3.7.8-1.1 2.5-1.2 3.7-.3zm-2.5 3.3c.8.6 1.9.5 2.4-.2.6-.7.4-1.8-.4-2.4-.8-.6-1.9-.5-2.4.2-.6.7-.4 1.8.4 2.4zM37.8 84.6l-1.5 2.6c-.1.2-.5.9.3 1.3s1.2-.2 1.3-.4l1.5-2.6.9.5-1.5 2.6c-.2.3-.4.7-.8.8-.5.2-1.1.2-1.7-.1-.7-.4-1-1-1.1-1.4-.1-.3 0-.7.3-1.2l1.5-2.6.8.5zM40.2 89.6c-.1.5.1.7.4.9.4.1.8.1.9-.3.2-.5-.1-.7-.6-1.1-.3-.3-1-.8-.7-1.7.3-.7 1.1-1 2-.7.6.2 1.3.9 1 1.8l-.9-.4c.1-.4-.1-.6-.4-.7-.3-.1-.6 0-.7.2-.2.4.1.6.6.9.4.3 1.1.9.8 1.9-.4 1-1.4 1.1-2.2.8-.6-.3-1.4-1-1.1-2l.9.4zM50.3 92.5c-.6.8-1.7 1.1-2.7.9-1.5-.3-2.5-1.7-2.3-3 .3-1.3 1.7-2.2 3.2-1.9.9.2 1.9.8 2.2 1.9l-1.1-.2c-.3-.5-.7-.8-1.3-.9-.9-.2-1.8.3-2 1.3-.2.9.5 1.8 1.4 2 .7.1 1.2-.1 1.4-.3l1.2.2zM53.8 89.1c1.5.1 2.8 1.2 2.7 2.6 0 1.4-1.3 2.4-2.9 2.4-1.5-.1-2.8-1.2-2.7-2.6.1-1.4 1.4-2.4 2.9-2.4zm-.1 4.1c1 0 1.8-.7 1.9-1.6 0-.9-.7-1.7-1.7-1.7s-1.8.7-1.9 1.6c-.1.9.7 1.7 1.7 1.7zM57.1 89.2l1.1-.1 2.6 3.2-.4-3.4 1-.1.6 4.7-1.1.1-2.6-3.2.4 3.4-1 .1-.6-4.7zM63.6 91.7c.2.4.5.5.8.4.4-.1.7-.4.6-.8-.1-.5-.5-.5-1.2-.5-.4 0-1.3 0-1.6-1-.2-.7.3-1.5 1.2-1.7.6-.2 1.6 0 1.9.9l-1 .2c-.1-.4-.5-.4-.7-.4-.3.1-.5.3-.4.6.1.4.5.4 1 .4s1.5.1 1.7 1.1c.3 1-.5 1.7-1.3 1.9-.7.2-1.7 0-2-1l1-.1zM66.4 87.3l1.1 2.8c.1.2.4.9 1.2.6.9-.3.6-1 .5-1.3l-1.1-2.8.9-.4 1.1 2.8c.1.4.2.8.1 1.2-.2.5-.6 1-1.2 1.2-.8.3-1.4.1-1.7-.1-.2-.1-.5-.4-.7-1l-1.1-2.8.9-.2zM69.7 86l.9-.5 1.8 3.5 1.5-.7.4.7-2.3 1.2-2.3-4.2zM73 85.1l-.8.5-.4-.7 2.5-1.6.4.7-.9.5 2.1 3.4-.8.5-2.1-3.3zM74.5 83.2l2.3-1.7.5.7-1.5 1.1.7.9 1.4-1.1.5.7-1.4 1.1.7.9 1.5-1.1.5.7-2.3 1.6-2.9-3.8zM77.4 81l1.2-1.1c.4-.4.8-.6 1.2-.7.4 0 .9 0 1.2.4.2.2.5.7.4 1.2 0 .4-.2.7-.4.9l2.3.3-.9.8-2.3-.4 1.2 1.3-.7.7-3.2-3.4zm2.2 1l.5-.4c.6-.6.4-1 .2-1.2-.2-.2-.6-.4-1.2.1l-.5.5 1 1z"/><g><path class="st1" d="M24.6 62.6l-1.8 1.6 1 3 2.5.2.4 1.3-8.4-.7-.4-1.1 6.2-5.6.5 1.3zM21.9 65l-2.4 2 3.1.1-.7-2.1zM24 59l-7.2 4.4-.2-1.3 5.4-3.2-6-1.8-.2-1.3 8.1 2.5.1.7zM24 49.7l-2.3.8-.3 3.1 2.2 1.1-.1 1.3-7.4-3.9.1-1.1 8-2.6-.2 1.3zm-3.4 1.1l-3 .8 2.8 1.4.2-2.2zM26.2 42.5l-7 2.1 5.6 2-.4 1.2-7.3-2.6.5-1.3 6.9-2L19 40l.4-1.2 7.3 2.6-.5 1.1zM27.9 39.3l-5.7-3.4-.9 1.4-.9-.5 2.4-3.9.9.5-.9 1.4 5.7 3.4-.6 1.1zM33.3 32.3l-2.3-.8-2.1 2.3L30 36l-1 1-3.6-7.6.8-.9 8 2.6-.9 1.2zm-3.4-1.2l-3-1.1 1.5 2.8 1.5-1.7zM36.4 22.8c-.5-.1-1.5-.3-2.5.4-1.5 1-1.9 2.9-1 4.3.9 1.4 3 1.6 4.3.6.2-.1 1.8-1.2 1.4-3.3l-3.3 2.3-.6-.9 4.5-3.1c1.4 2.2.3 4.6-1.5 5.8-2.1 1.4-4.7 1-5.9-.8-1.2-1.8-.6-4.4 1.4-5.8 1.2-.8 2.9-1.1 4.4-.4l-1.2.9zM42.1 26.3l-2.7-7.2 4.4-1.6.4 1-3.2 1.1.8 2.1 3.2-1.2.4 1-3.2 1.2.8 2.2 3.2-1.2.4 1-4.5 1.6zM47.9 22c0 .3.4 1.4 1.6 1.1.8-.1 1.3-.7 1.2-1.5-.1-.9-1-.9-1.6-1-1.2-.2-1.5-.3-2-.5-.5-.3-.7-.8-.8-1.3-.2-.9.4-2.2 2-2.5 1.4-.2 2.6.4 2.8 1.7l-1.2.2c-.1-.8-.9-1-1.4-.9-.7.1-1 .8-1 1.2.1.7.9.8 1.3.8 1.1.2 2.7.2 3.1 2 .2 1.3-.7 2.5-2.2 2.8-1.2.2-2.8-.2-3-1.9l1.2-.2zM59.2 23.8l1.5-7.6 4.3.9-.2 1-3.1-.6-.5 2.3 3.1.6-.2 1-3.1-.6-.6 3.2-1.2-.2zM64.6 25l2.5-7.3 1.2.4-2.5 7.3-1.2-.4zM72.1 28.5l-.9-7.3-2.9 5.2-1.1-.6 3.7-6.7 1.2.7.9 7.2 2.8-5.1 1.1.6-3.7 6.7-1.1-.7zM78.4 33.9l.9-2.3-2.3-2.2-2.3 1-1-.9 7.7-3.3.8.8-2.9 7.9-.9-1zm1.3-3.4l1.2-2.9L78 29l1.7 1.5zM82.7 40l2.7-6.8-5 3.2-.7-1.1 6.5-4.1.7 1.2-2.6 6.6 5-3.1.7 1.1-6.5 4.1-.8-1.1zM91.4 46.9c.2-.3.7-1.3.3-2.6-.5-1.7-2.2-2.7-3.8-2.2-1.6.5-2.4 2.3-1.9 3.9.3.9.9 1.6 1.7 2l.4 1.5c-1.7-.5-2.7-1.9-3.1-3.2-.7-2.4.5-4.8 2.6-5.4 2.2-.6 4.4.8 5.1 3.1.2.6.4 1.7 0 2.7-.3.9-.7 1.4-.9 1.7l-.4-1.5zM86.1 50.9l7.7-.8.1 1.3-7.7.8-.1-1.3zM86.4 53.5l7.7.2-.1 4.7h-1l.1-3.4-2.3-.1-.1 3.4h-1l.1-3.4-2.3-.1-.1 3.4h-1v-4.7zM85.3 63.3l4.1-2-3.5-.8.3-1.2 7.5 1.7-.6 2.6c-.3 1.2-.7 1.7-1.1 2.1-.6.4-1.3.5-2 .4-2-.5-1.9-2.4-1.8-2.9l-3.3 1.7.4-1.6zm4.3-2l-.2.8c-.1.5-.5 2.3.9 2.7.6.1 1.5-.2 1.8-1.6l.3-1.3-2.8-.6zM86.4 67.3c-.2-.1-1.3-.5-1.8.7-.3.7-.1 1.5.6 1.8.8.4 1.3-.3 1.7-.8.8-.9 1.1-1.1 1.5-1.3.5-.2 1.1-.2 1.6.1.8.4 1.6 1.6.9 3.1-.6 1.3-1.8 1.9-3 1.4l.5-1.2c.8.3 1.3-.2 1.5-.7.3-.7-.1-1.3-.5-1.5-.7-.3-1.2.3-1.4.6-.8.8-1.7 2.2-3.4 1.4-1.2-.5-1.7-1.9-1-3.4.5-1.1 1.7-2.1 3.3-1.5l-.5 1.3z"/></g><path class="st2" d="M36.5 33.9c7.5-6.3 18-8.6 27.9-5 9.9 3.6 16.6 12.2 18.2 22v-.2c-2-9.7-9-18-19.1-21.2-10-3.2-20.4-.5-27.6 6.1l.6-1.7zM73.6 76.1c-7.5 6.3-18 8.6-27.9 5-9.9-3.6-16.6-12.2-18.2-22v.2c2 9.7 9 18 19.1 21.2 10 3.2 20.4.5 27.6-6.1l-.6 1.7z"/><g><path class="st1" d="M31.1 49.3c.1 1 .7 1.3 1.3 1.3.7 0 1.4-.5 1.4-1.2 0-1-.7-1.2-1.9-1.7-.8-.3-2.3-.8-2.3-2.8 0-1.6 1.2-2.8 2.9-2.8 1.1 0 2.8.8 2.9 2.8h-1.9c-.1-.9-.6-1.1-1.1-1.1-.6 0-1 .4-1 1 0 .9.6 1 1.6 1.4.8.3 2.6.9 2.6 3s-1.7 3.1-3.2 3.1c-1.3 0-3.1-.9-3.2-3h1.9zM36.5 44.8h1.6v.9c.9-1.1 2.1-1.1 2.4-1.1 2.4 0 3.7 2.1 3.7 3.9 0 2.2-1.6 4-3.7 4-1.3 0-1.8-.5-2.3-.9v3.2h-1.8v-10zm3.9 6c.9 0 2.2-.8 2.2-2.3 0-1.4-1-2.3-2.1-2.3s-2.2.9-2.2 2.3c-.1 1.6 1.2 2.3 2.1 2.3zM47 49.3c.1.5.8 1.5 2 1.5.8 0 1.4-.3 1.7-.9h1.9c-.4 1.3-1.8 2.6-3.6 2.6-2.2 0-3.9-1.8-3.9-3.9 0-2.1 1.6-4 3.9-4s3.8 2 3.8 3.9c0 .3-.1.7-.1.9H47zm4-1.5c-.2-1.2-1.1-1.7-2-1.7-.7 0-1.8.4-2.1 1.7H51zm-3.6-5.2l3-1.8.7 1.4-3 1.6-.7-1.2zM61.4 49.8c-.6 1.7-2 2.7-3.7 2.7-1.9 0-3.9-1.5-3.9-4 0-2.3 1.9-3.9 3.9-3.9.9 0 3 .4 3.7 2.7h-2c-.2-.4-.6-1.1-1.7-1.1s-2.1.8-2.1 2.3c0 1.3.9 2.3 2.2 2.3.6 0 1.2-.3 1.6-1h2zM62.5 42.3h1.8v1.6h-1.8v-1.6zm0 2.5h1.8v7.4h-1.8v-7.4zM73.2 52.2h-1.6v-.9c-.6.7-1.7 1.2-2.6 1.2-1.9 0-3.6-1.5-3.6-4 0-2.3 1.7-3.9 3.7-3.9 1.5 0 2.4 1.1 2.5 1.2v-.9h1.6v7.3zm-3.9-6.1c-1.5 0-2.2 1.3-2.2 2.4 0 1.3.9 2.3 2.2 2.3 1.2 0 2.2-1 2.2-2.3 0-1.6-1.1-2.4-2.2-2.4zM74.5 42.3h1.8v9.9h-1.8v-9.9z"/></g><g><path class="st1" d="M32.6 57.1h2v4.3h3.8v-4.3h2v10.5h-2v-4.4h-3.8v4.4h-2V57.1zM50 67.7h-1.7v-1c-.6.7-1.8 1.2-2.8 1.2-2 0-3.8-1.6-3.8-4.3 0-2.4 1.8-4.2 4-4.2 1.6 0 2.6 1.2 2.6 1.3v-1H50v8zm-4.1-6.5c-1.6 0-2.4 1.3-2.4 2.5 0 1.3 1 2.4 2.4 2.4 1.3 0 2.3-1 2.3-2.5s-1.2-2.4-2.3-2.4zM51.4 57.1h1.9v3.3c.7-.7 1.6-1 2.5-1 2.4 0 4 2.1 4 4.2 0 1.6-1 4.2-3.9 4.2-1.5 0-2.2-.7-2.7-1.2v1h-1.7V57.1zm4.2 9.1c1.2 0 2.3-1 2.3-2.5s-1.1-2.5-2.3-2.5c-1.5 0-2.4 1.2-2.4 2.4 0 1.8 1.2 2.6 2.4 2.6zM60.9 57.1h1.9v1.7h-1.9v-1.7zm0 2.7h1.9v7.9h-1.9v-7.9zM64.8 61.4h-.9v-1.7h.9v-2.6h1.9v2.6h1.1v1.7h-1.1v6.2h-1.9v-6.2zM76.6 67.7h-1.7v-1c-.6.7-1.8 1.2-2.8 1.2-2 0-3.8-1.6-3.8-4.3 0-2.4 1.8-4.2 4-4.2 1.6 0 2.6 1.2 2.6 1.3v-1h1.7v8zm-4.1-6.5c-1.6 0-2.4 1.3-2.4 2.5 0 1.3 1 2.4 2.4 2.4 1.3 0 2.3-1 2.3-2.5s-1.2-2.4-2.3-2.4zM78.5 61.4h-.9v-1.7h.9v-2.6h1.9v2.6h1.1v1.7h-1.1v6.2h-1.9v-6.2z"/></g><circle cx="55" cy="55" r="43.7" fill="none" stroke="#cc2826" stroke-width="2.2" stroke-miterlimit="10"/></svg>