<svg xmlns="http://www.w3.org/2000/svg" viewBox="0 0 153 45"><path d="M21.7 13.4c-.6-3.3-3.1-6-6.9-7.5-2.6-.9-8.3-1-11.6 1C1.4 7.9.4 9.4.1 11.1c-.3 2.1.6 4.3 2.7 6.7.5.5.8.5.9.3.1-.1.3-.4-.2-1-.9-1.2-3-3.9-2.2-6.5.4-1.4 1.4-2.5 2.9-3.2 3.3-1.6 8-1.1 10.2-.2 3.2 1.2 5.3 3.6 5.9 6.5.6 3-.6 6.1-3 8.3-2 1.9-5.6 3.2-7.8 2.8-.8-.1-1.3-.5-1.6-1-.2-.4-.2-1 0-1.4.9-2.6 5.5-10.5 7.1-12.9.2-.3.1-.5-.1-.7-.3-.2-1-.1-1.2.3-1.5 2-4.7 7.9-6.5 12.1-.3.1-.5.2-.6.4-.2.3-.2.7 0 1.3v.2l-.1.4c-.2.7-.4 1.4-.5 2-.1.4 0 .6.1.8.1 0 .1.1.2.1h.1c.2-.1.3-.4.4-.6.1-.6.2-1 .4-1.4.4.8 1 1.4 1.9 1.6 2.8.7 7.1-1.7 8.8-3.1 2.9-2.6 4.3-6.2 3.8-9.5zM29.8 16c.1-.2 0-.4-.1-.5-.1-.1-.2-.2-.3-.2s-.2 0-.3.2c-.1.1-.2.2-.4.2H28.4c-.3-.1-.7-.2-1.1-.2-.4 0-.7.1-1 .2-1.2.5-2.5 1.7-4 3.4-1.7 1.9-2.5 3.5-2.5 4.8 0 1 .4 1.1.8 1.1.3 0 .5-.1.7-.2.9-.6 2-1.6 3.4-2.8.8-.7 1.4-1.4 1.9-2-.2.5-.5 1.1-.8 1.8-.3.8-.6 1.8-.9 2.9v.2c0 .2.1.5.4.6h.1c.3 0 .5-.4.5-.5.3-.7.6-1.5.9-2.2.3-.7.5-1.4.8-2 .6-1.1 1.3-2.3 1.9-3.4l.3-1.4zm-7.9 7.2c-.1.1-.2.1-.2.1s-.1 0-.1-.3c0-.2 0-.3.1-.5.4-1.1 1.1-2.3 2-3.5 1-1.3 1.8-2 2.5-2.2.2 0 .3-.1.4-.1.4 0 .7.3.7.5-2.1 2.9-3.9 4.8-5.4 6zM34.9 29.6h-.2c-.2.1-.6.2-.8.2-.5 0-.9-.1-1.2-.4-.3-.3-.2-1.1-.2-1.8v-.1c.1-1.2.5-2.8 1.3-4.7.8-2 1.8-3.8 2.8-5.3.2-.3.3-.5.2-.7 0-.1-.1-.2-.3-.3s-.5-.2-1 .1c-.2.1-.4.3-.6.4-.5.3-1.5 1.1-2.2 1.8-1.1 1-1.9 1.8-2.6 2.7v-.1c.6-1.5 1.4-3 2.4-4.4.1-.1.1-.2.1-.4v-.1l-.1-.1c-.1-.2-.4-.1-.4-.1-.3.1-.6.2-.7.4-.6.9-1.3 2-2 3.2-.8 1.4-1.4 2.5-1.7 3.4-.1.1-.2.4 0 .6 0 .1.2.3.6.2.7-.2 1.1-.4 1.3-.7 1.8-2.4 3.4-4.1 5-5.4.1-.1.1-.1.2-.1s.1 0 .1.1v.1c-.8 1.2-1.5 2.6-2.3 4.4-.9 2-1.3 3.5-1.4 4.7-.1 1.1.1 2 .6 2.6.4.4.9.7 1.5.7h.2c1.5-.2 1.8-.4 1.8-.7-.1.1-.2-.1-.4-.2zM39.9 14.3c.5 0 .8-.3 1-.5.4-.4.6-.8.7-1.1.1-.2 0-.5-.2-.7s-.5-.3-.7-.2c-.3.1-.6.3-1 .8-.4.4-.6.8-.6 1.1.2.1.2.4.8.6z"/><path d="M49 13.8c-.4-.4-.8-.5-1.3-.3-1.9.8-4.7 4-5.6 7.2l-.3.3c-.8.9-3.3 2.8-4.3 3-.3.1-.5.1-.6 0 0-.1-.2-.3.2-1.2s.4-1 .5-1.1c0-.2.1-.3 2-4.4.3-.7.1-1.1 0-1.2-.2-.2-.5-.3-.8-.2-.3.1-.5.3-.6.7 0 .1-.3.7-.5 1.2-.7 1.8-1.9 4.4-1.9 5.7 0 .6.3 1.2.9 1.6.3.2.6.3.8.3.1 0 .2 0 .3-.1 1.1-.6 3-2.1 4-3v.3c0 .7.3 1.5 1 2.1.4.3.9.5 1.3.5h.2c1-.2 2.3-1 3.1-1.7.3-.2.2-.4.1-.6-.1-.2-.4-.2-.6 0-.7.5-1.9 1-2.9 1.2-.2 0-.6 0-.8-.2-.3-.2-.4-.7-.4-1.3.1-1.4.9-2.8 1.5-3.9l1.6-.4c1.6-.3 2.8-1 3.3-2 .5-.8.3-1.9-.2-2.5zM47.9 15c.2-.1.4-.2.5-.2h.1c.1.1.1.4-.2.9-.5.9-1.9 1.7-3.2 1.9 1.1-1.2 2.1-2.1 2.8-2.6zM62.5.6c-1.7-.6-3.4-.4-5 .5-4.7 2.6-7.4 9.6-8.1 21.5v.2c-.1 1.8.1 3.2.5 4.3s1.1 1.4 1.5 1.4h.1c.9 0 1.9-.9 2.5-2.3.2-.3.4-.9.5-1.2.1-.4 0-.5-.2-.6-.1 0-.3-.1-.5.4-.1.4-.3.7-.5 1.1-.5.8-1.1 1.4-1.6 1.4-.4 0-.7-.6-.8-1.1-.3-.9-.4-2.2-.5-3.4 3-2.2 6-4.6 8.7-7.4 4.1-4.1 6.2-7.4 6.5-10 .1-.6 0-1.1-.1-1.5-.2-1.7-1.3-2.7-3-3.3zm-12 21.1v-.2c.2-3.4.7-6.6 1.5-9.7 1.4-5.3 3.3-8.7 5.9-9.9 1.5-.8 2.9-.9 4.3-.5s2.2 1.2 2.4 2.4c.1.4.1.8.1 1.2-.2 2.3-1.9 5.2-5.1 8.6-2.5 2.7-5.5 5.5-9.1 8.1zM108.4 19c0-.1 0-.2-.1-.3v-.1c.2-.2.5-.2.8-.2.5 0 .7-.2.7-.4 0-.1-.1-.4-.6-.4-.9 0-1.8-.1-2.4-.1h-1s-.1 0-.1-.1c-.6-.4-1-.6-1.4-.6-.5 0-.9.3-1.3.7 0 0-.1 0-.1.1h-1c-.4 0-1 .1-1 .7 0 .3.3.6.8.9-1.8 2.5-2.9 4.6-3.3 6.2l-.4.4c-.4.6-1 1.2-1.8 1.9s-1.5 1.1-2 1.3h-.3c-.1 0-.2-.2-.2-.7v-.4c.3-2.4 1.4-5.5 3.1-9.2.6-1.4 1.9-3.8 4-7.6.2-.2.2-.5.2-.8 0-.6-.1-1.2-.4-1.8-.4-1-1-1.1-1.4-1-1.6.1-4.3 2.2-8 6.4-2.8 3.1-5.2 6.1-7 9 0 .1-.1.1-.1.2V23c2.2-5.2 3.4-9.1 3.7-11.5 0-.5-.1-1-.5-1.4-.3-.3-.7-.5-1.1-.5-.9 0-2.1.8-4 2.7 1-2.9 1.5-5.1 1.6-6.6 0-.6-.3-1.2-.9-1.8-.6-.5-1.2-.8-1.8-.8-1.2.1-2.8.9-4.9 2.3-2 1.4-3.8 2.9-5.3 4.7-1.7 2-2.5 3.6-2.5 4.9 0 .9.6 1.8 1.1 2 .2 0 .6.1.7-.2.1-.3-.1-.5-.4-.8h-.2c-.3-.1-.4-.3-.4-.5 0-1.7 1.6-4 4.7-6.8 3-2.7 5.5-4.2 7.3-4.4.6-.1 1 0 1.2.2.2.2.3.6.3 1.2 0 .7-.2 1.9-.7 3.6-.6 1.9-1.2 3.7-1.9 5.2-1.9 2.1-3.5 4.2-4.9 6.4-2 3-2.9 5-2.9 6.2 0 .3 0 .9.5.9.2 0 .6-.1 1-.4.4-.2.7-.5.8-.7 2-2.4 4.2-6.5 6.6-12 .6-.8 1.4-1.7 2.5-2.6 1.2-1.1 2.2-1.7 2.8-1.7.2 0 .3.1.3.1.2.1.2.3.2.6-.4 2.7-2.2 7.5-5.2 14.1v.4c0 .2.1.6.7.6.5 0 .8-.2 1-.5 2.3-3.6 5-7 8-10.5 3.4-3.9 5.9-6.1 7.4-6.5.3-.1.6-.1.7-.1.5 0 .5.2.5.4s-.1.6-.3 1c-1.7 3-3.2 6.1-4.5 9.3-1.6 3.8-2.4 6.6-2.3 8.5 0 .5.2 1.1.5 1.6.3.6.7.7.9.7h.2c.8-.3 1.7-.9 2.5-1.7.5-.5.9-1 1.3-1.4.1.3.2.5.5.7.2.2.5.3.8.3h.2c1.6-.2 3.4-1.4 5.6-3.6 1.7-2.2 2.8-4 2.9-5.6zm-8.6 8.1h-.4c-.1-.1-.1-.2-.1-.3 0-.2 0-.4.1-.6 1-2.7 2.5-5.1 4.3-7.1.1-.1.1-.1.2-.1l.1-.1c.6-.3 1.3-.4 2.1-.3.4 0 .6.1.7.3.1.1.1.3.1.5-.3 1.4-1.3 3-3 4.8-1.5 1.8-2.9 2.7-4.1 2.9zm-25.8-1c-.1 0-.1 0 0 0-.1 0 0-.1 0-.3.5-1.5 1.4-3.4 2.9-5.5.8-1.3 1.6-2.3 2.3-3.2-.5 1-1.1 2.3-2 3.8-1.4 2.4-2.4 4.2-3.2 5.2zM120.1 16.1c.1-.2.2-.4.2-.5s-.1-.3-.2-.4c-.2-.1-.4-.2-.9-.1-.3-.2-.6-.2-.9-.2-.4 0-1.1.1-1.9.4-1.4.4-2.9 1.4-4.9 3.1-2.4 2.1-3.9 4.3-4.6 6.5-.1.2-.1.5-.1.7 0 1.4.8 1.7 1.4 1.7.5 0 1.1-.2 1.7-.7 1.5-1.1 3.2-2.7 5-4.7l.2-.2v.2c-.1.1-.8 1.3-1.3 2.2-.4.7-.8 1.4-1 1.6-4 6.7-7.2 15.5-8.1 18.2l-.3.9.6.2.3-.9c2-5.7 6.3-13.4 9.4-19.1.6-1.1 1.2-2.2 1.7-3.1 1.4-2.6 2.8-4.4 3.7-5.6v-.2zm-11.4 9.2c0-1.5 1.1-3.3 3.2-5.5 1.9-1.9 3.6-3.1 5.1-3.4h.1c.1 0 .2 0 .2.1.2.1.2.4.2.7s-.1.6-.3.8c-1 1.3-2.3 2.9-4 4.5-2.8 2.8-3.9 3.2-4.3 3.2 0 .1-.2.1-.2-.4zM134.8 24.9c-.1-.2-.4-.2-.7 0-.9.6-2.3 1.3-3.5 1.4-.3 0-.7 0-1-.3-.3-.3-.5-.8-.4-1.6.1-1.8 1-3.5 1.9-4.8l1.9-.5c1.9-.3 3.4-1.2 4-2.4.4-.8.2-2.1-.4-2.8-.4-.4-1-.5-1.5-.3-2.6 1.1-6.8 6.2-7 10.7 0 .2 0 .5.1.7-.1-.1-.3-.1-.7.2l-.8.4c-.1 0-.1 0-.2.1-.1 0-.3.1-.4.1 0 0-.1-.1 0-.8.2-1.6 1.8-5 2.8-6.7.2-.4.1-1.3-.3-1.6-.1-.1-.5-.3-.9.1-.8.8-1.7 1.9-2.7 3.1-1.8 2.2-3.9 4.7-5.7 6-.3.2-.5.2-.6.2-.1-.1-.2-.5 0-1.4.5-2.1 2.6-5.9 4.3-8.4.5-.7.2-1.1 0-1.1-.3-.2-.9-.1-1.2.3-1.2 1.7-4.7 7.2-4.9 10.2 0 .7.2 1.3.7 1.7.2.2.5.2.7.2.2 0 .3 0 .5-.1 1.1-.4 4.4-4 7-7l.2-.2c0 .1 0 .2-.1.4l-.1.4c-.5 1.3-1.1 3-1.1 4.5 0 .6.4 1.3.9 1.6.3.2.6.3.8.2.6-.2 1.1-.8 1.5-1.1.2-.2.3-.4.3-.5.2.4.5.9.9 1.2.5.4 1 .6 1.5.6h.3c1.3-.3 2.8-1.2 3.7-2 .4-.4.3-.6.2-.7zm.5-9.6c.2-.1.4-.2.6-.2.1 0 .2 0 .2.1.2.1.2.5-.2 1.1-.7 1.2-2.4 2.2-4.1 2.4 1.3-1.6 2.5-2.7 3.5-3.4zM152.6 0c-.4 0-.6.1-1 .3l-.6.3c-1 .4-1.4.7-1.6.9-.3.4-.6.9-1 1.3-2.1 2.8-4 5.4-5.5 8 0 .1-.1.1-.1.2-2.3 0-2.6.3-2.7.5-.1.3-.2.8.8 1.3.3.2.3.3.3.6s-.1.5-.3.8c-1.9 3.2-3.7 7-5.4 11.5-2.1 5.4-3.1 9.5-3.1 12.4 0 1.9.2 3.4 1.1 4.6 1 1.3 2.3 1.9 3.7 1.9 2.4 0 5.1-1.6 8.3-4.9 3-3.1 4.7-6.1 5.1-8.9-.1-.3-.2-.8-.6-.8-.4 0-.7.5-.8.7v.1c-.3 2.1-1.6 4.6-3.8 7.3-2.3 2.8-4.4 4.5-6.5 5.3-.7.3-1.3.4-2 .4-2 0-3-1.6-3-5v-1.4c.3-3.7 1.7-8.5 4.1-14.2 1.6-3.8 3.4-6.9 5.1-9.8.1-.2.3-.3.5-.4 1.6-.1 3-.2 4.2-.3 1.4-.1 2.6-.2 3.6-.2.5 0 .8-.7.8-.9v-.1l-.1-.1c-.1-.2-.3-.2-.5-.2H144.2s0-.1.1-.3c3.8-6 6.5-9.2 8.1-9.6.2-.1.5-.1.5-.5.3-.6.1-.8-.3-.8z"/></svg>