<svg id="Calque_1" xmlns="http://www.w3.org/2000/svg" viewBox="0 0 110 110"><style>.st1{fill:#fff}.st2{fill:#2c2e87}.st3{fill:#cc2826}.st4{fill:#fff;stroke:#fff;stroke-miterlimit:10}</style><circle cx="55" cy="55" r="44.3" fill="#eeeeef"/><circle class="st1" cx="55" cy="55" r="29.7"/><path class="st2" d="M21.9 31.6l2.7-3.4 1.2.9-1.7 2.2 1.7 1.3 1.6-2.1 1.2.9-1.6 2.1 2.8 2.2-1 1.2-6.9-5.3zM28.7 24.3l1-.8 8.3 4.3-1.3 1.1-2.1-1.1-2.3 1.9.7 2.3-1.3 1.1-3-8.8zm4.3 2.8l-2.4-1.4 1 2.6 1.4-1.2zM35.1 19.7l1.5-.7c.8-.4 1.1-.5 1.5-.6 1.1-.2 2.1.2 2.5 1.2.3.7.3 1.3-.1 1.9 1-.1 1.8.3 2.2 1.3.4.8.3 1.7-.1 2.4-.3.5-.9.9-1.7 1.3l-2.1 1-3.7-7.8zm3.4 2.1c.4-.2.7-.4.8-.6.1-.2.2-.6 0-.8-.3-.5-.8-.6-1.5-.3l-.6.3.8 1.6.5-.2zm1.8 3.2c1-.5 1.3-1 1-1.7-.3-.6-1-.8-1.9-.3l-.8.4 1 2.1.7-.5zM43.3 16.2l2.6-.6c1-.2 1.7-.2 2.3.2.7.4 1.1 1 1.3 1.7.2.8 0 1.7-.4 2.3-.3.4-.6.6-1.1.9l3 2.6-2 .4-3-2.7.7 3.2-1.5.4-1.9-8.4zm3.5 3.4c.9-.2 1.4-.8 1.2-1.6-.2-.8-.9-1.1-1.8-.9l-1 .2.6 2.6 1-.3zM52 14.7l1.6-.1.5 8.6-1.6.1-.5-8.6zM64.3 21.8c-.9 1.4-2.6 2.2-4.2 2-2.5-.4-4.2-2.6-3.8-5.1.4-2.4 2.6-4.1 5-3.8 1.1.2 2 .7 2.7 1.5.5.6.7 1 .9 1.7l-1.8-.3c-.3-.5-.5-.7-.9-.9-.3-.2-.8-.4-1.2-.5-1.5-.2-3 .9-3.2 2.5-.2 1.6.9 3.1 2.4 3.4.8.1 1.5-.1 2.3-.7l1.8.2zM71 17.8l1.1.5-.2 9.3-1.6-.7.1-2.4-2.8-1.2-1.8 1.6-1.6-.7 6.8-6.4zm-.6 5.1l.2-2.8-1.9 2 1.7.8zM78.2 21.7l1.4 1.2-1.2 7.1 4-4.8 1.2 1-5.5 6.6-1.4-1.1 1.2-7.1-4 4.8-1.2-1 5.5-6.7zM85.4 30.6l-1-1.3 1.2-.9 2.9 3.8-1.2.9-1-1.3-5.6 4.3-1-1.3 5.7-4.2z"/><path class="st3" d="M24.6 76.6c-.8.5-1.9.3-2.5-.5-.5-.8-.3-1.9.5-2.5.8-.5 1.9-.3 2.5.6.5.8.3 1.9-.5 2.4zM35.6 81.9l1.8 1.1c1.1.7 1.4 1 1.7 1.6.3.8.3 1.6-.2 2.4-.5.8-1.4 1.3-2.2 1.4-.4 0-.9-.1-1.4-.4-.2-.1-.4-.2-.7-.4l-.5-.3-1.7 2.8-1.3-.8 4.5-7.4zm-.2 4.4c.4.3.7.4 1 .5.4.1.9-.1 1.2-.5.2-.4.2-.9-.1-1.3-.2-.2-.2-.3-.8-.6l-.5-.4-1.2 2 .4.3zM48.1 92c-.7 2.3-3.2 3.7-5.6 2.9-2.4-.7-3.7-3.2-2.9-5.6.7-2.3 3.3-3.6 5.6-2.9 2.3.8 3.7 3.3 2.9 5.6zm-7-2.2c-.5 1.5.4 3.2 1.9 3.7s3.2-.4 3.7-2-.3-3.2-1.9-3.7c-1.6-.4-3.2.5-3.7 2zM51.4 94.1c0 .7.4 1.2 1.1 1.2.7 0 1.2-.4 1.2-1s-.3-1-1.1-1.3c-.9-.4-1-.4-1.3-.6-.7-.5-1.1-1.3-1.1-2.2.1-1.3 1.3-2.3 2.7-2.3.8 0 1.5.5 2 1.1.3.4.4.9.4 1.5l-1.6-.1c0-.6-.3-1-.9-1-.6 0-.9.3-1 .8 0 .3.1.5.3.7.2.2.4.3 1.1.6.7.3 1.1.5 1.4.9.5.5.7 1.1.7 1.8 0 .8-.3 1.4-.9 1.9-.6.5-1.3.8-2.1.7-.9-.1-1.7-.5-2.2-1.2-.3-.5-.4-.9-.4-1.5h1.7zM57.1 88.1l4.6-.6.2 1.5-3 .4.3 2.1 2.9-.4.2 1.5-2.9.4.3 2 3-.4.2 1.5-4.6.6-1.2-8.6zM64.6 86.7l1.8 5.2c.2.6.3.8.7 1 .4.3.9.3 1.3.2.5-.2.9-.5 1-1 .1-.3.1-.6-.1-1.2l-1.8-5.2 1.5-.5 1.8 5.2c.3.9.4 1.6.1 2.3-.3.9-1 1.5-1.9 1.8-1 .4-2.1.2-2.9-.4-.5-.3-.8-.9-1.1-1.7l-1.8-5.2 1.4-.5zM70.3 84.5l2.2-1.4c.9-.6 1.5-.7 2.3-.6.7.1 1.4.6 1.8 1.2.4.7.6 1.6.4 2.3-.1.5-.3.7-.8 1.2l3.7 1.4-1.6 1-3.7-1.6 1.7 2.8-1.3.8-4.7-7.1zm4.4 2.1c.8-.5 1-1.2.6-1.9s-1.2-.8-2-.3l-.9.5 1.4 2.2.9-.5zM87.7 73.1c.8.5 1.1 1.6.6 2.4-.5.9-1.6 1.1-2.5.6-.8-.5-1.1-1.6-.6-2.5.5-.8 1.6-1 2.5-.5z"/><g><path class="st2" d="M25.3 55c0 12.9 8.2 23.8 19.7 28V27c-11.5 4.2-19.7 15.1-19.7 28z"/></g><g><path class="st3" d="M84.7 55c0-12.9-8.2-23.8-19.6-28v56c11.5-4.2 19.6-15.1 19.6-28z"/></g><g><path class="st1" d="M55 24.9c-4.6 0-9 1.1-12.9 3v54.4c3.9 1.9 8.3 3 12.9 3s8.9-1.1 12.8-2.9V27.8c-3.9-1.9-8.2-2.9-12.8-2.9z"/></g><path class="st4" d="M16.6 59.7c-.1-.1-.2-.2-.2-.4v-.2l.3-1.1.1-.2c-.1-.1-.1-.3-.1-.4 0-.2 0-.3.1-.4l.3-.3c1-2.2 2.7-5.4 3.5-6.5.1-.2.4-.3.7-.3.1 0 .2 0 .3.1.2.1.3.4.1.7-.9 1.2-3.3 5.5-3.8 6.9-.1.2-.1.5 0 .6.1.2.3.4.7.4h.4c1.1 0 2.7-.6 3.6-1.5 1.3-1.2 1.8-2.8 1.5-4.3-.3-1.5-1.4-2.7-3-3.3-.5-.2-1.5-.4-2.6-.4-.7 0-1.8.1-2.7.5-.7.4-1.2.9-1.4 1.6-.4 1.3.6 2.6 1.1 3.3.4.5.2.8.1.9-.1.1-.2.1-.3.1-.2 0-.3-.1-.5-.3-1.2-1.4-1.7-2.6-1.5-3.8.2-1 .8-1.9 1.8-2.4 1-.6 2.4-.9 4-.9 1 0 1.9.1 2.5.4 2.1.8 3.5 2.3 3.8 4.2.3 1.9-.5 3.9-2.2 5.3-.9.7-2.8 1.8-4.3 1.8-.2 0-.5 0-.7-.1-.4-.1-.7-.3-.9-.6 0 .1-.1.2-.1.2 0 .3-.2.5-.3.5l-.3.1v-.2z"/><path class="st4" d="M27 59.1c-.2 0-.4-.2-.4-.6l.5-1.4-.2.2c-.7.7-1.3 1.2-1.8 1.5l-.5.2c-.2 0-.7-.1-.7-.8 0-.7.5-1.6 1.4-2.7.8-.9 1.6-1.6 2.2-1.9l.6-.1s.5.1.6.1c.1 0 .1-.1.2-.1.1-.1.2-.1.3-.1l.2.1h.1v.1c.1.2.2.3.2.4v.2l-1.3 2.4-.9 2.2s-.2.3-.5.3zm.6-4.5c-.2.1-.5.3-1.2 1.1-.5.6-.8 1.2-1 1.8.7-.6 1.6-1.5 2.5-2.9H27.6zM31.3 62.2c-.4 0-.7-.1-1-.4-.3-.4-.4-.9-.4-1.5 0-.7.3-1.5.8-2.6.3-.6.5-1.1.8-1.6-.6.6-1.3 1.4-2 2.3-.1.2-.4.3-.8.4h-.1c-.1 0-.2-.1-.3-.1l-.1-.1v-.1c-.1-.2 0-.5 0-.6l.9-1.8 1.1-1.7c.1-.2.3-.3.5-.3h.1c.1 0 .2 0 .3.1h.2v.4l-.1.1c-.3.4-.5.8-.8 1.2l.5-.5c.6-.6 1-.9 1.3-1 0 0 .1-.1.2-.1l.1-.1c.2-.1.3-.1.5-.1.1 0 .2 0 .3.1.1 0 .2.2.3.3.1.2 0 .4-.1.6-.5.8-1 1.7-1.5 2.8-.4 1-.6 1.8-.7 2.5v.8c.1.1.2.1.4.1l.5-.1h.1c.3.1.4.3.4.5 0 .4-.4.5-1.2.6-.1-.1-.1-.1-.2-.1zM35 53.3h-.1c-.5-.1-.5-.5-.5-.6 0-.2.1-.5.4-.7.2-.3.4-.4.6-.5h.1c.2 0 .3.1.5.2.1.1.2.3.2.4v.1c0 .2-.2.4-.4.7-.2.2-.5.4-.8.4z"/><path class="st4" d="M33.7 59.2c-.2 0-.4-.1-.6-.2-.4-.2-.6-.6-.6-1 0-.7.6-2.1 1-3.1.1-.3.2-.5.3-.6 0-.3.2-.5.5-.6h.2c.2 0 .4.1.5.2.1.1.3.4.1.9-1 2.2-1 2.3-1 2.3l-.2.6c-.1.2-.1.3-.1.3.5-.1 1.8-1.1 2.2-1.6 0-.1.1-.1.1-.1.5-1.8 2-3.5 3.1-3.9.1 0 .2-.1.3-.1.2 0 .4.1.6.3.4.4.5 1 .2 1.5-.3.6-1 1-1.9 1.2l-.8.2c-.3.5-.7 1.2-.7 1.9 0 .3 0 .4.1.5 0 0 .1.1.2.1.5-.1 1.1-.3 1.5-.6.1-.1.2-.1.3-.1.1 0 .3.1.3.2.1.2.1.4-.1.6-.4.4-1.1.8-1.7.9h-.2c-.3 0-.6-.1-.8-.3-.3-.3-.5-.6-.6-.9-.6.5-1.3 1.1-1.8 1.3-.2.1-.3.1-.4.1zm5.6-5.6c-.2.2-.5.4-.8.7.4-.1.7-.3.8-.7 0 .1 0 .1 0 0z"/><path class="st4" d="M41.2 60.9c-.3 0-.7-.2-1-.9-.2-.5-.3-1.2-.3-2v-.4c.4-6.5 1.8-10.3 4.5-11.7.6-.3 1.2-.5 1.7-.5.4 0 .7.1 1.1.2 1 .3 1.6.9 1.8 1.8l.1.9c-.2 1.5-1.3 3.3-3.6 5.5-1.4 1.4-3 2.8-4.6 3.9 0 .6.1 1.3.2 1.7.1.3.2.4.3.4.1 0 .4-.2.6-.6l.2-.6c.1-.3.3-.3.4-.3h.1c.2.1.3.2.2.6l-.3.7c-.3.8-.8 1.3-1.4 1.3zm4.9-14.7c-.5 0-.9.1-1.4.4-1.3.7-2.3 2.4-3 5.2-.4 1.5-.6 3.1-.7 4.7 1.7-1.3 3.2-2.7 4.4-4 1.6-1.8 2.5-3.3 2.6-4.5l-.1-.6c-.1-.5-.5-.9-1.1-1.1-.2 0-.5-.1-.7-.1zM64.1 61.8c-.2 0-.5-.1-.7-.5-.2-.3-.3-.6-.3-1 0-1 .4-2.6 1.3-4.7.7-1.7 1.5-3.4 2.4-5 .1-.2.1-.4.2-.4h-.1l-.3.1c-.5.2-1.6.9-3.8 3.4-1.6 1.9-3 3.7-4.3 5.6-.2.2-.4.4-.7.4-.4 0-.6-.3-.6-.5V59c1.6-3.6 2.6-6.1 2.8-7.6v-.2c-.1.1-.5.2-1.3.9-.5.5-1 1-1.3 1.4-1.3 2.9-2.5 5.1-3.5 6.4 0 0-.3.2-.4.3l-.1.1c-.2.2-.5.3-.7.3-.2 0-.5-.1-.5-.7 0-.7.5-1.8 1.6-3.5.8-1.2 1.6-2.3 2.7-3.4.3-.8.7-1.7 1-2.7.2-.9.4-1.5.4-1.9 0-.3-.1-.4-.1-.5 0 0-.1-.1-.2-.1h-.2c-.9.1-2.2.9-3.8 2.3-2 1.8-2.4 2.9-2.4 3.5v.3l.1-.2h.1c.1.1.5.4.3.7 0 .1-.2.2-.4.2h-.2c-.4-.2-.8-.8-.8-1.3 0-.8.5-1.7 1.4-2.8.8-1 1.8-1.8 2.9-2.6 1.1-.8 2-1.2 2.7-1.3.4 0 .8.2 1.1.5.4.3.6.7.6 1.1 0 .7-.2 1.7-.6 2.9.7-.6 1.3-.9 1.7-.9.3 0 .5.1.7.4.2.2.3.5.3.8v.1c-.1 1-.6 2.5-1.3 4.5.8-1.1 1.7-2.2 2.7-3.3 2-2.3 3.5-3.4 4.4-3.5.3 0 .7.1.9.7.2.4.2.7.2 1.1 0 .1-.1.4-.1.4h-.2l.2.1s-2.1 4-2.1 4.1c-.9 2-1.5 3.6-1.6 4.8V60.7c.2-.1.6-.3.9-.6.4-.4.7-.7.9-1 .1-.1.1-.2.2-.2.2-.9.8-1.9 1.7-3.1-.2-.1-.4-.3-.4-.6s.1-.6.8-.6h.5c.3-.3.5-.4.8-.4.3 0 .5.1.8.4l1.8.1c.4 0 .6.2.6.4s-.2.5-.6.5H72v.1c-.1.9-.7 2-1.8 3.1-1.2 1.2-2.2 1.8-3.1 2H67c-.2 0-.4-.1-.6-.2-.1 0-.1-.1-.2-.2-.1.2-.3.3-.5.5-.5.5-1 .8-1.4 1-.1-.1-.1-.1-.2-.1zm5.3-6c-1 1-1.7 2.3-2.2 3.7v.2c.6-.1 1.3-.6 2.1-1.5.9-.9 1.4-1.7 1.5-2.5v-.1s-.1 0-.2-.1h-.3l-.9.3z"/><path class="st4" d="M69.3 69.6l.1-.2c0-.1 2-6 4.5-10.3l.3-.5c-.5.5-1 .9-1.4 1.2-.4.3-.7.4-1.1.4-.3 0-1-.1-1-1.1l.1-.4c.4-1.3 1.2-2.5 2.5-3.6 1.1-.9 1.9-1.5 2.7-1.7.4-.2.8-.2 1.1-.2l.5.1h.3c.2 0 .3 0 .4.1.1.1.2.2.2.4-.1.3-.1.3-.2.4l-.1.1c-.5.7-1.2 1.6-2 3l-.9 1.7c-1.8 3.2-4.2 7.6-5.2 10.7l-.1.1-.7-.2zm7.1-15.2c-.7.2-1.6.8-2.6 1.8-1.1 1.1-1.7 2-1.7 2.8.2 0 .7-.3 2.1-1.7.9-.9 1.6-1.7 2.1-2.4.1-.1.1-.2.1-.3v-.2z"/><path class="st4" d="M77.1 60.5c-.2 0-.4-.1-.5-.2-.3-.2-.5-.6-.5-1.1.1-1.8 2.2-4.9 2.7-5.6.1-.2.4-.3.6-.3.1 0 .3 0 .3.1.2.1.3.5 0 .9-.9 1.3-2 3.3-2.3 4.4-.1.2-.1.4-.1.4.9-.6 2-2 3-3.2l1.4-1.7c.2-.2.3-.2.5-.2s.3.1.3.1c.3.2.4.9.2 1.2-.5.9-1.3 2.7-1.5 3.5v.1c.2-.1.3-.2.4-.2.1-.1.2-.1.2-.1v-.2c.1-2.5 2.4-5.3 3.9-5.9.1-.1.3-.1.4-.1.2 0 .5.1.7.3.4.4.5 1.2.3 1.7-.1.8-1 1.4-2.1 1.6l-.9.2c-.4.7-.9 1.5-.9 2.4v.1c0 .3.1.5.2.6.1.1.2.1.3.1h.1c.6-.1 1.3-.4 1.8-.7.1-.1.2-.1.3-.1.1 0 .3.1.4.2.1.2.1.4-.1.6-.5.4-1.3 1-2.1 1.1h-.2c-.3 0-.7-.1-1-.4-.1-.1-.2-.2-.3-.4-.2.2-.5.5-.9.7h-.2c-.1 0-.3-.1-.5-.2-.3-.2-.6-.6-.6-1 0-.7.2-1.3.4-2-2.6 3-3.1 3.1-3.3 3.2-.1 0-.2.1-.4.1zm9.3-6.7s-.1 0-.1.1c-.4.2-.8.6-1.3 1.2.6-.2 1.1-.6 1.3-1 .1-.2.1-.3.1-.3z"/><path class="st4" d="M87.4 69.5c-.8 0-1.6-.4-2.2-1.1-.5-.7-.7-1.6-.7-2.6 0-1.6.5-3.8 1.6-6.7.9-2.4 1.9-4.5 2.9-6.2.1-.1.1-.2.1-.3 0-.1 0-.1-.1-.1-.5-.2-.6-.5-.6-.7 0-.1 0-.2.1-.2.1-.2.4-.4 1.5-.4.8-1.4 1.8-2.8 2.9-4.3l.5-.7c.1-.2.3-.3.9-.5l.3-.1.6-.2c.4 0 .6.2.6.5s-.3.4-.4.5c-.5.1-1.7 1.1-4.1 4.8H94.9c.1 0 .3 0 .5.2l.1.1v.1c0 .2-.2.7-.6.7l-4.2.3-.1.1c-1.1 1.9-1.9 3.4-2.7 5.2-1.3 3.1-2 5.6-2.2 7.6v.8c0 2.2.8 2.5 1.4 2.5.3 0 .6-.1 1-.2 1.1-.4 2.2-1.3 3.4-2.8 1.2-1.4 1.8-2.7 2-3.8.1-.2.3-.6.6-.6.4 0 .5.5.6.6v.1c-.2 1.6-1.2 3.2-2.8 4.9-1.6 1.6-3.1 2.5-4.5 2.5z"/><g><path d="M25.1 52.6c-.3-1.8-1.7-3.2-3.7-4-1.4-.5-4.4-.5-6.3.5-.9.5-1.5 1.3-1.7 2.3-.2 1.1.3 2.3 1.5 3.6.3.3.4.3.5.2.1-.1.1-.2-.1-.5-.5-.7-1.6-2.1-1.2-3.5.2-.8.7-1.3 1.5-1.7 1.7-.9 4.3-.6 5.5-.1 1.7.6 2.8 1.9 3.1 3.5.3 1.6-.3 3.3-1.6 4.5-1.1 1-3 1.7-4.2 1.5-.4-.1-.7-.3-.9-.5-.1-.2-.1-.5 0-.8.5-1.4 3-5.7 3.8-6.9.1-.2.1-.3 0-.4-.2-.1-.5 0-.7.2-.8 1.1-2.5 4.3-3.5 6.5-.2 0-.3.1-.3.2-.1.1-.1.2-.1.3 0 .1 0 .2.1.4v.1l-.1.2-.3 1.1v.2c0 .1 0 .2.1.2l.1.1h.1c.1-.1.2-.2.2-.3l.2-.8c.2.5.5.8 1 .9 1.5.4 3.8-.9 4.7-1.7 1.9-1.6 2.7-3.5 2.3-5.3zM29.5 54s0-.1 0 0c0-.2 0-.2-.1-.3v-.1h-.1c-.1 0-.1 0-.2.1l-.2.1h-.1l-.7-.1-.5.1c-.6.3-1.4.9-2.2 1.8-.9 1-1.3 1.9-1.3 2.6 0 .5.2.6.4.6l.4-.1c.5-.3 1.1-.8 1.8-1.5.5-.5.8-.9 1.2-1.2-.2.5-.5 1.1-.5 1.1l-.5 1.5c0 .1.1.3.2.4.2 0 .3-.2.3-.3l.5-1.2.4-1.1 1-1.8.2-.6zm-4.2 3.8s-.1.1 0 0c-.1 0-.2 0-.2-.1v-.3c.2-.6.6-1.2 1.1-1.9.5-.7 1-1.1 1.3-1.2h.2c.2 0 .4.1.4.3-1.1 1.6-2 2.6-2.8 3.2zM32.3 61.3l-.5.1c-.3 0-.5-.1-.6-.2-.2-.2-.2-.6-.2-1 0-.7.3-1.5.7-2.5.4-1.1.9-2 1.5-2.8.1-.1.1-.3.1-.4 0-.1-.1-.1-.2-.2-.1 0-.3-.1-.5.1l-.3.2c-.2.1-.8.6-1.2.9l-1.4 1.4c.3-.8.8-1.6 1.3-2.4l.1-.2v-.1H31c-.1-.1-.2-.1-.2 0-.2 0-.3.1-.4.2l-1.1 1.7-.9 1.8c0 .1-.1.2 0 .4 0 0 0 .1.3.1.4-.1.6-.2.7-.4.9-1.3 1.8-2.2 2.7-2.9h.1c.1 0 .1 0 .1.1-.4.7-.8 1.5-1.2 2.4-.5 1-.7 1.9-.8 2.5 0 .6.1 1.1.3 1.4.2.3.5.4.9.4.8-.1 1-.2 1-.4 0-.1-.1-.2-.2-.2zM35 53.1c.2.1.4-.1.6-.3.2-.2.3-.4.4-.6v-.1c0-.1 0-.2-.1-.3-.1-.1-.3-.2-.4-.1-.1 0-.3.2-.5.4s-.3.4-.3.6c-.1.1 0 .3.3.4z"/><path d="M39.8 52.8c-.2-.2-.4-.3-.7-.1-1 .4-2.5 2.1-3 3.9-.1 0-.1.1-.2.2-.4.5-1.8 1.5-2.3 1.6h-.3c-.1-.1-.1-.3.1-.6l.2-.6c0-.1 0-.1 1.1-2.4.2-.4.1-.6 0-.7-.1-.1-.3-.2-.4-.1-.2 0-.3.2-.3.4l-.3.7c-.4.9-1 2.4-1 3 0 .3.2.7.5.8.2.1.5.2.6.1.6-.3 1.6-1.1 2.2-1.6v.2c0 .4.2.8.5 1.1.3.2.6.3.8.3.6-.1 1.2-.6 1.6-.9.1-.1.1-.2.1-.3-.1-.1-.2-.1-.3 0-.4.3-1 .6-1.5.6-.1 0-.3 0-.4-.1-.1-.1-.2-.3-.2-.6v-.1c0-.8.5-1.5.8-2.1.1 0 .8-.2.8-.2.9-.2 1.5-.6 1.8-1.1.2-.5.1-1.1-.2-1.4zm-2 2c.5-.6 1-1.1 1.4-1.4.2-.1.3-.1.3-.1v.1c0 .1 0 .2-.1.4-.2.5-.9.9-1.6 1zM47.1 45.7c-.9-.3-1.8-.2-2.7.3-2.5 1.4-3.9 5.1-4.3 11.5v.4c0 .8.1 1.4.3 2 .2.6.6.7.8.8.5 0 1-.4 1.4-1.2l.3-.6c.1-.2 0-.3-.1-.3 0 0-.2 0-.3.2l-.3.6c-.3.5-.6.8-.9.7-.2 0-.4-.3-.4-.6-.1-.5-.2-1.2-.2-1.8 1.6-1.2 3.2-2.5 4.7-4 2.2-2.2 3.3-3.9 3.5-5.4v-.8c-.3-.9-.9-1.5-1.8-1.8zm-2.5.7c.8-.4 1.6-.5 2.3-.3.7.2 1.2.6 1.3 1.3l.1.6c-.1 1.2-1 2.8-2.7 4.6-1.3 1.5-3 2.9-4.9 4.3.1-1.9.4-3.6.8-5.3.7-2.7 1.7-4.5 3.1-5.2zM67 60.5c.8-.1 1.8-.8 3-1.9 1.1-1.1 1.7-2.1 1.8-3V55.3c.1-.1.3-.1.4-.1.2 0 .4-.1.4-.2s0-.2-.4-.2l-1.8-.1c-.3-.2-.6-.4-.8-.4-.2 0-.5.1-.7.4l.1.1c-.1-.1-.1-.1-.4 0h-.3c-.2 0-.6.1-.5.4 0 .2.2.4.4.5-1 1.3-1.6 2.5-1.8 3.3-.1 0-.1.1-.2.2-.2.3-.5.7-1 1-.4.4-.8.6-1.1.7h-.2s-.1-.1-.1-.4v-.2c.2-1.3.7-2.9 1.7-4.9l2.1-4.1.1-.4c0-.3-.1-.6-.2-1-.2-.5-.6-.6-.7-.6-.9.1-2.3 1.2-4.3 3.4-1.5 1.7-2.8 3.3-3.7 4.8 0 .1-.1.1-.1.1v-.1c1.2-2.8 1.8-4.9 2-6.2v-.1c0-.2-.1-.5-.3-.6-.2-.2-.4-.3-.6-.3-.5 0-1.2.5-2.2 1.5.5-1.6.8-2.7.9-3.6 0-.3-.2-.6-.5-.9-.3-.3-.7-.4-1-.4-.6.1-1.5.5-2.6 1.2s-2 1.6-2.8 2.5c-.9 1.1-1.3 1.9-1.3 2.6 0 .5.3 1 .6 1.1.1 0 .3.1.4-.1.1-.1-.1-.3-.2-.4-.2 0-.2-.2-.2-.3 0-.9.8-2.1 2.5-3.6 1.6-1.5 2.9-2.3 3.9-2.4.3 0 .5 0 .6.1.1.2.1.4.1.7 0 .4-.1 1-.4 1.9-.3 1-.6 2-1 2.8-1 1.1-1.9 2.2-2.6 3.4-1.1 1.6-1.5 2.7-1.5 3.3 0 .1 0 .5.3.5.1 0 .3-.1.5-.2l.4-.4c1-1.3 2.2-3.5 3.5-6.4.3-.4.8-.9 1.3-1.4.7-.6 1.2-.9 1.5-.9h.2c0 .1.1.2 0 .3-.2 1.5-1.2 4-2.8 7.6v.2c0 .1 0 .3.4.3.2 0 .4-.1.6-.3 1.3-1.9 2.7-3.7 4.3-5.6 1.8-2.1 3.2-3.3 4-3.5l.4-.1c.3 0 .3.1.3.2s0 .3-.2.5c-.9 1.6-1.7 3.3-2.4 5-.8 2-1.3 3.6-1.3 4.6 0 .3.1.6.2.9.2.4.5.4.6.4.4-.2.9-.5 1.3-.9.3-.3.5-.5.7-.8 0 .2.1.3.2.4.2.3.4.4.5.4zm-.1-.7l.1-.3c.5-1.5 1.3-2.8 2.3-3.8l.2-.1c.4-.2.8-.2 1.1-.1.2 0 .3.1.4.2v.2c-.1.8-.7 1.6-1.6 2.6-.9.9-1.6 1.5-2.2 1.6H67c-.1-.2-.1-.2-.1-.3zM56 54.7c-.2.5-.6 1.1-1 2-.7 1.3-1.3 2.2-1.7 2.8l-.1.1c0-.1.1-.2.1-.2.2-.8.8-1.8 1.5-3 .4-.8.8-1.3 1.2-1.7zM78 54l.1-.3c0-.1 0-.1-.1-.2s-.3-.1-.5 0c-.1 0-.5-.1-.5-.1-.2 0-.6.1-1 .2-.7.2-1.6.8-2.6 1.7-1.3 1.1-2.1 2.3-2.5 3.5v.4c0 .7.4.9.8.9.3 0 .6-.1.9-.4.8-.6 1.7-1.5 2.6-2.5l.1-.1-.1.1-1.2 2.1c-2.5 4.3-4.5 10.2-4.5 10.2h.2c1-3.1 3.4-7.5 5.2-10.7l.9-1.7c.8-1.4 1.5-2.4 2-3l.2-.1zm-6.1 5c0-.8.6-1.8 1.7-2.9 1-1 1.9-1.6 2.7-1.8h.2c.1.1.1.2.1.4s-.1.3-.2.5c-.5.7-1.2 1.5-2.1 2.4-1.5 1.5-2.1 1.7-2.3 1.7 0-.1-.1-.1-.1-.3zM86 58.8c-.1-.1-.2-.1-.4 0-.5.3-1.2.7-1.8.8-.2 0-.4 0-.6-.1-.2-.1-.2-.4-.2-.7v-.1c.1-.9.6-1.9 1-2.6.1 0 1-.3 1-.3 1-.2 1.8-.7 2.1-1.3.2-.4.1-1.1-.2-1.5-.2-.2-.5-.3-.8-.2-1.4.6-3.6 3.3-3.7 5.7v.4c-.1 0-.2 0-.4.1l-.4.2H81.3s-.1-.1 0-.4c.1-.8.9-2.7 1.5-3.6.1-.2 0-.7-.2-.9-.1 0-.2-.2-.5.1L80.7 56c-1 1.2-2.1 2.5-3.1 3.2-.1.1-.3.1-.3.1-.1-.1-.1-.3 0-.8.3-1.1 1.4-3.2 2.3-4.5.3-.4.1-.6 0-.6-.2-.1-.5-.1-.6.1-.7.9-2.5 3.9-2.6 5.5 0 .4.1.7.4.9.2.1.4.2.7.1.6-.2 2.4-2.2 3.8-3.8l.2-.1s0 .1-.1.3l-.1.2c-.3.7-.6 1.6-.6 2.4 0 .3.2.7.5.8.2.1.3.1.4.1.3-.1.6-.4.8-.6.1-.1.1-.2.2-.3.1.2.3.5.5.7.3.3.7.4 1 .3.7-.1 1.5-.7 2-1.1l-.1-.1zm.5-4.6c-.4.6-1.3 1.1-2.1 1.2.7-.8 1.3-1.4 1.8-1.8.2-.1.4-.1.4-.1s.1.1.1.2-.1.3-.2.5zM95.5 45.4l-.5.2-.3.1c-.6.2-.8.4-.9.5l-.5.7c-1.1 1.5-2.1 2.9-2.9 4.3v.1c-1.2 0-1.4.1-1.5.3v.2c0 .2.1.4.5.5.1.1.2.2.2.3 0 .2 0 .3-.1.4-1 1.7-2 3.8-2.9 6.2-1.1 2.9-1.6 5.1-1.6 6.7 0 1 .1 1.8.6 2.5s1.2 1 2 1c1.3 0 2.7-.9 4.4-2.6 1.6-1.7 2.5-3.3 2.7-4.8 0-.2-.1-.4-.3-.5-.2 0-.4.3-.4.4-.2 1.2-.8 2.5-2 3.9-1.2 1.5-2.4 2.4-3.5 2.8-.4.1-.7.2-1.1.2-1.1 0-1.6-.9-1.6-2.7v-.8c.2-2 .9-4.5 2.2-7.6.8-1.9 1.6-3.4 2.7-5.3.1-.1.1-.2.3-.2l2.3-.1 1.9-.1c.3 0 .4-.4.4-.5v-.1c-.1-.1-.2-.1-.3-.1h-3.9v-.2c2-3.2 3.5-4.9 4.3-5.1.1 0 .3-.1.3-.3-.2-.2-.3-.3-.5-.3z"/></g></svg>