<svg id="Calque_1" xmlns="http://www.w3.org/2000/svg" xmlns:xlink="http://www.w3.org/1999/xlink" viewBox="0 0 110 110"><style>.st0{fill:none}.st2{fill:#cc2826}</style><circle class="st0" cx="55.9" cy="55" r="43.7"/><circle class="st0" cx="55.9" cy="55" r="38.2"/><defs><circle id="SVGID_3_" cx="55.9" cy="55" r="43.7"/></defs><clipPath id="SVGID_4_"><use xlink:href="#SVGID_3_" overflow="visible"/></clipPath><defs><path id="SVGID_2_" d="M96 70.7c-6.3 16.1-21.9 27.4-40.2 27.4-22.5 0-41-17.2-43-39.2"/></defs><defs><path id="SVGID_1_" d="M15.4 39.7c6.2-16.3 21.9-27.9 40.4-27.9 19 0 35.1 12.3 40.9 29.3"/></defs><clipPath id="SVGID_5_"><use xlink:href="#SVGID_2_" overflow="visible"/></clipPath><clipPath id="SVGID_6_" clip-path="url(#SVGID_5_)"><use xlink:href="#SVGID_1_" overflow="visible"/></clipPath><use xlink:href="#SVGID_2_" overflow="visible" fill="none" stroke="#cc2826" stroke-width="2.263" stroke-miterlimit="10"/><use xlink:href="#SVGID_1_" overflow="visible" fill="none" stroke="#cc2826" stroke-width="2.263" stroke-miterlimit="10"/><path class="st2" d="M25.1 60.7l.9 3.1c.3 1.2.4 1.9.2 2.6-.2.7-.7 1.5-1.6 1.7-.5.2-1.4.2-2.2-.4-.6-.5-.9-1-1.1-1.5l-2.2 3.6-.7-2.2 2.3-3.6-3.1.9-.5-1.9 8-2.3zm-3.3 3l.3 1.2c.4 1.5 1.3 1.5 1.8 1.4.4-.1 1.1-.7.7-2.1l-.3-1.2-2.5.7zM27.9 69l3 4.8-1.2.8-1.9-3.1-1.8.9 1.9 3-1.2.8-1.9-3-1.7 1 1.9 3.1-1.2.8-3-4.8 7.1-4.3zM34.9 78l1.1 1-2.2 9.2-1.6-1.4.6-2.4-2.8-2.5-2.3.9-1.6-1.4 8.8-3.4zm-3.4 3.2l1.8 1.6.8-2.7-2.6 1.1zM47.1 91.4c-1.3 1.1-3.5 1.3-5.4.5-2.8-1.1-4.3-3.9-3.5-6.1.8-2.1 3.8-3.1 6.6-2 1.6.6 3.4 2.1 3.6 4.2l-2-.8c-.4-.9-1.1-1.6-2.2-2.1-1.6-.6-3.6-.1-4.2 1.4-.6 1.5.4 3.3 2.2 4 1.3.5 2.2.2 2.8 0l2.1.9zM52.1 87.3l-1.9-.2.1-1.4 5.8.5-.1 1.5-2-.2-.6 6.9-1.9-.2.6-6.9zM58.1 86l1.9-.2.8 8.3-1.9.2-.8-8.3zM61.9 85.9l1.9-.7 4.8 5 .5-6.9 1.9-.7-1 9.2-1.5.5-6.6-6.4zM72.4 81.3l1.6-1.1 4.7 6.9-1.7 1.2-4.6-7zM78 78.8l-1.4 1.4-1-1 4.1-4.1 1 1-1.4 1.4 4.8 4.9-1.4 1.4-4.7-5zM80.8 73.8l3-4.8 1.2.8-2 3.1 1.7 1.1 1.9-3 1.2.8-1.9 3 1.7 1 1.9-3.1 1.2.8-3 4.8-6.9-4.5z"/><g><path class="st2" d="M35.3 31.3l-.2.2c-.8 1-1.6 1.3-2.1 1.5-.2.9-.6 1.9-1.3 2.7-1.9 2.3-4.9 3.1-6.8 1.6-1.9-1.5-1.9-4.7 0-7 1.8-2.3 4.9-3.1 6.8-1.6 1.2.9 1.3 2 1.4 2.6.4-.2.8-.5.9-.7l.2-.2 1.1.9zm-3.9.7c-.1-.4-.1-1-.9-1.7-1.3-1-3.3-.6-4.5.9-1.4 1.7-1 3.6 0 4.5.1.1.2.1.2.1.1-.3.3-.6.8-1.2 1.8-2 4.4-2.6 4.4-2.6zm-3.2 3.7c-.2.3-.4.5-.4.7 1.3 0 2.4-.9 2.8-1.5.4-.6.6-1 .7-1.3-1.6.6-2.5 1.3-3.1 2.1zM35.6 21.2l2.5 4.7c.2.4.8 1.6 2.4.7s.9-2.1.7-2.4l-2.5-4.7 1.7-.9 2.5 4.7c.3.6.6 1.3.4 2-.2.9-.9 1.9-2.1 2.6-1.4.8-2.7.6-3.3.4-.5-.2-1-.6-1.5-1.5l-2.5-4.7 1.7-.9zM50 16.1l1.5-.2 5.4 7.7-2.1.3-1.4-2-3.7.5-.8 2.3-2.1.3 3.2-8.9zm.1 4.7l2.4-.3-1.5-2.4-.9 2.7zM61.9 16.1l1.9.4-1.4 6.8 3.1.7-.3 1.4-5-1.1 1.7-8.2zM72 19.1l1.7.8-3.6 7.5-1.7-.8 3.6-7.5zM79.1 25l-1.5-1.2.9-1.1 4.5 3.7-.9 1.1-1.5-1.2-4.4 5.4-1.5-1.2 4.4-5.5zM86.7 30.4l3.2 4.6-1.2.8-2.1-3-1.7 1.2 2 2.9-1.2.8-2-2.9-1.6 1.1 2.1 3-1.2.9-3.2-4.6 6.9-4.8z"/></g><g><path class="st2" d="M18.3 47.4c-.4-2.3-2.1-4.1-4.6-5.1-.7-.3-1.8-.4-3-.4-1.9 0-3.7.4-4.9 1.1-1.2.7-1.9 1.7-2.1 2.9-.2 1.4.4 2.9 1.9 4.6.3.3.6.4.8.2.1-.1.3-.3-.1-.8-.6-.8-2-2.5-1.5-4.2.3-.9.9-1.6 1.9-2.1 1-.6 2.3-.7 3.3-.7 1.2 0 2.5.2 3.3.5 2.1.8 3.5 2.3 3.8 4.3.4 1.9-.4 4-2 5.5-1.1 1-3.1 1.8-4.5 1.8H10c-.5-.1-.8-.3-1-.6-.1-.2-.1-.6 0-.9.6-1.7 3.7-7 4.7-8.6.2-.3.1-.5-.1-.6-.1-.1-.2-.1-.3-.1-.3 0-.5.1-.7.3-1 1.3-3.1 5.3-4.3 8.1-.1.1-.3.2-.3.3-.1.1-.1.3-.1.4 0 .2 0 .3.1.5v.1l-.1.3-.4 1.4v.2c0 .2.1.3.2.4l.1.1H8.1c.2-.1.3-.4.3-.5 0-.1.1-.3.2-.7.3.5.7.8 1.2.9.2.1.5.1.8.1 1.8 0 4.1-1.3 5.2-2.2 1.9-1.8 2.9-4.2 2.5-6.5zM23.8 49.3v-.1c0-.1-.1-.3-.1-.3l-.1-.1h-.1l-.2-.1c-.1 0-.2 0-.3.1l-.2.1h-.1l-.8-.2-.7.2c-.8.4-1.7 1.1-2.7 2.3-1.1 1.3-1.7 2.4-1.7 3.3 0 .8.4.9.7.9l.5-.2c.6-.4 1.4-1 2.2-1.9l.9-.9c-.2.4-.3.7-.3.7l-.6 1.9c0 .3.2.5.4.6h.1c.3 0 .4-.3.5-.4l1.1-2.8 1.3-2.3.2-.8zm-1.9.7c-1.4 1.9-2.6 3.2-3.6 4v-.4c.3-.7.7-1.5 1.3-2.3.7-.8 1.2-1.3 1.6-1.4h.3c.2-.1.3 0 .4.1zM27.1 58.2H27l-.6.1c-.3 0-.6-.1-.7-.2-.1-.2-.1-.7-.1-1.1.1-.8.3-1.9.8-3.1.5-1.3 1.2-2.5 1.8-3.5.1-.2.2-.4.1-.5 0-.1-.1-.2-.2-.3-.1 0-.1-.1-.3-.1-.2 0-.3 0-.5.1 0 0-.2.2-.4.3-.3.1-1 .7-1.5 1.2L24 52.5c.4-.9.9-1.7 1.4-2.5v-.1l.1-.2v-.1-.1l-.1-.1c-.1-.1-.1-.1-.2-.1h-.1c-.3 0-.4.2-.5.4-.1.1-.4.6-1.4 2.1L22 54.1c0 .1-.1.3 0 .5 0 .1.1.1.1.1s.1.1.3.1h.1c.5-.1.8-.3.9-.5 1.2-1.6 2.2-2.7 3.3-3.6-.5.9-1 1.8-1.5 2.9-.6 1.3-.9 2.4-.9 3.2 0 .8.1 1.4.4 1.8.3.3.6.5 1.1.5h.2c1-.2 1.3-.3 1.3-.6.1-.1 0-.2-.2-.3zM30.4 48.2h.1c.3 0 .5-.2.7-.4.3-.3.4-.6.5-.8v-.1c0-.1-.1-.3-.2-.4-.2-.2-.4-.2-.6-.2-.2 0-.4.2-.7.6-.3.3-.4.6-.4.8.1 0 .1.3.6.5z"/><path class="st2" d="M33.6 51l1-.3c1.1-.2 2-.7 2.3-1.4.2-.5.1-1.3-.3-1.7-.3-.3-.6-.4-1-.2-1.3.6-3.1 2.7-3.7 4.8l-.2.2c-.5.6-2.2 1.8-2.8 2H28.6s0-.2.1-.7l.3-.8c0-.1.1-.2 1.3-2.9.2-.5.1-.8 0-1h-.6c-.2.1-.4.3-.4.5-.1.1-.1.3-.3.8-.5 1.2-1.3 3-1.3 3.8 0 .5.2.9.6 1.1.2.1.4.2.6.2.1 0 .2 0 .3-.1.7-.4 1.8-1.2 2.5-1.9 0 .5.3 1 .7 1.4.4.3.8.4 1.1.4.7-.2 1.6-.7 2.1-1.1.2-.2.2-.4.1-.5-.1-.2-.4-.2-.6 0-.5.3-1.2.7-1.9.8h-.1c-.1 0-.3 0-.3-.1-.1-.1-.2-.4-.2-.7v-.1c0-.9.5-1.8 1-2.5zm2.5-2.5c0 .1 0 .3-.1.5-.3.5-1 .9-1.7 1.1.6-.7 1.1-1.2 1.6-1.5.1-.1.2-.1.2-.1zM45.6 38.8c-1.1-.4-2.3-.3-3.4.3-3.2 1.7-5 6.4-5.5 14.4v.5c0 1 .1 1.8.4 2.5.3.8.8 1 1.1 1 .6 0 1.3-.6 1.8-1.6l.3-.8c.1-.4-.1-.5-.2-.5H40c-.1 0-.3.1-.4.3l-.3.7c-.3.6-.7.9-1 .9-.2 0-.3-.2-.5-.6-.2-.5-.3-1.4-.3-2.2 2-1.4 4-3.1 5.8-4.9 2.7-2.7 4.2-5 4.4-6.8l.1-1c-.3-1.1-1-1.8-2.2-2.2zm-7.9 14c.1-2.2.4-4.3.9-6.3.9-3.5 2.2-5.7 3.8-6.6.6-.3 1.2-.5 1.8-.5.3 0 .7.1 1 .2.9.3 1.4.8 1.6 1.5l.1.8c-.1 1.5-1.3 3.4-3.3 5.7-1.6 1.6-3.6 3.4-5.9 5.2zM76.4 51.2V51c.1 0 .2-.1.4-.1.4 0 .6-.2.6-.4 0-.1 0-.4-.5-.4l-2.4-.1c-.4-.3-.7-.5-.9-.5h-.1c-.3 0-.6.2-.9.5H72c-.5 0-.8.2-.8.6 0 .3.2.5.5.7-1.2 1.6-1.9 3-2.2 4-.1.1-.2.2-.2.3-.3.4-.7.8-1.2 1.3-.5.4-1 .7-1.3.8h-.1s-.1-.1-.1-.4v-.2c.2-1.6.9-3.6 2.1-6.1.1-.1.5-.9 2.7-5.1v-.1c0-.1.1-.3.1-.5 0-.4-.1-.8-.3-1.3-.3-.7-.8-.8-1-.8-1.1.1-2.9 1.5-5.4 4.3-1.6 1.8-3 3.6-4.2 5.3 1.2-3.1 2-5.4 2.1-6.9v-.1c0-.3-.1-.6-.3-.9-.2-.2-.5-.4-.8-.4-.5 0-1.3.5-2.5 1.5.6-1.8.9-3.1 1-4v-.1c0-.4-.2-.8-.6-1.2-.4-.4-.8-.5-1.2-.5h-.1c-.8.1-1.9.6-3.3 1.6-1.3.9-2.5 2-3.5 3.1-1.1 1.3-1.7 2.4-1.7 3.4 0 .6.4 1.3.8 1.5h.2c.2 0 .3-.1.4-.2.1-.3-.2-.5-.3-.7h-.1c-.2 0-.2-.2-.2-.2 0-1.1 1-2.6 3.1-4.5 2-1.8 3.6-2.8 4.8-2.9.3 0 .6 0 .7.1.1.1.2.3.2.7 0 .5-.2 1.3-.5 2.4-.4 1.3-.8 2.4-1.3 3.5-1.2 1.4-2.3 2.8-3.3 4.2-1.3 2-1.9 3.4-1.9 4.2 0 .2 0 .7.4.7.2 0 .4-.1.7-.3 0 0 .3-.3.6-.5 1.3-1.6 2.8-4.3 4.4-8 .4-.5.9-1.1 1.6-1.7 1-.9 1.5-1.1 1.8-1.1h.1v.3c-.3 1.8-1.4 5-3.4 9.4v.2c0 .2.1.5.6.5.3 0 .6-.1.8-.4 1.6-2.4 3.3-4.7 5.3-7 2.3-2.6 3.9-4 4.9-4.3l.4-.1c.2 0 .2.1.2.2s0 .3-.2.6c-1.1 2-2.1 4.1-3 6.2-1.1 2.5-1.6 4.5-1.6 5.7 0 .4.1.8.3 1.1.2.5.5.6.7.6h.2c.6-.2 1.1-.6 1.7-1.2.3-.3.5-.5.7-.8.1.2.2.3.3.4.2.2.4.2.6.2h.1c1.1-.2 2.3-1 3.8-2.4 1.3-1.1 2-2.4 2.1-3.5zm-6.1 5.4s0-.1 0 0l.1-.4c.7-1.8 1.6-3.4 2.8-4.7 0 0 .1-.1.2-.1.5-.2.9-.2 1.4-.2.2 0 .3.1.4.1v.3c-.2.9-.8 2-1.9 3.1-1.1 1.1-2 1.8-2.7 1.9h-.3zm-14.2-5.7c-.2.5-.5.9-.8 1.5-.7 1.3-1.3 2.3-1.8 3 .3-.9.9-2 1.8-3.3.2-.4.5-.8.8-1.2zM84.2 49.3l.2-.4c0-.1-.1-.2-.2-.3-.1-.1-.3-.1-.7-.1l-.6-.2c-.3 0-.7.1-1.3.3-.9.3-2 1-3.3 2.1-1.6 1.4-2.6 2.9-3.1 4.4l-.1.5c0 1.1.7 1.2 1.1 1.2.4 0 .8-.2 1.2-.5.9-.6 1.8-1.5 2.8-2.6l-1.1 1.8C76 61 73.5 68.4 73.5 68.4s0 .1.1.1l.2.1.2.1s.1 0 .1-.1c1.3-3.8 4.3-9.3 6.4-13.3l1.1-2.1c.9-1.7 1.9-2.9 2.5-3.8l.1-.1zm-7.6 6.1c0-1 .7-2.2 2.1-3.6 1.2-1.3 2.4-2 3.3-2.2h.1c.1.1.1.2.1.4s-.1.3-.2.5c-.7.9-1.5 1.9-2.6 3-1.9 1.9-2.6 2.1-2.8 2.1.1 0 0 0 0-.2zM94.1 55.1c-.1-.2-.4-.2-.6 0-.6.4-1.5.8-2.3.9h-.1c-.2 0-.3-.1-.4-.2-.2-.2-.3-.4-.3-.8v-.1c.1-1.1.7-2.2 1.2-3.1l1.2-.3c1.3-.2 2.3-.9 2.7-1.7.3-.6.1-1.5-.3-2-.3-.3-.7-.4-1.1-.2-1.8.8-4.6 4.2-4.7 7.2v.3c-.1 0-.2.1-.4.2-.1 0-.2.1-.5.3l-.2.1v-.4c.1-1 1.2-3.3 1.8-4.5.2-.3.1-1-.2-1.2-.1 0-.2-.1-.3-.1-.2 0-.3.1-.4.2l-1.8 2.1c-1.2 1.5-2.6 3.2-3.8 4-.1.1-.2.1-.3.1 0 0-.1-.2 0-.8.3-1.4 1.7-3.9 2.8-5.6.4-.6.1-.9 0-.9-.3-.2-.7-.1-.9.2-.8 1.1-3.1 4.9-3.3 6.9 0 .5.2 1 .5 1.2.2.1.3.2.5.2.1 0 .3 0 .4-.1.6-.2 2.1-1.8 4.6-4.6l.1.2c-.3.9-.7 2-.7 3 0 .5.3.9.6 1.1.2.2.4.2.6.1.4-.2.8-.5 1-.8.1-.1.1-.1.1-.2.1.2.3.5.5.6.4.4.9.5 1.3.4.9-.2 1.9-.8 2.5-1.3.4-.1.2-.4.2-.4zm-1.8-4.3c.8-.9 1.5-1.6 2-1.9.1-.1.2-.1.3-.1h.1v.1c0 .1 0 .2-.2.5-.3.6-1.2 1.2-2.2 1.4zM105.9 38.4l-.7.2-.4.2c-.7.3-1 .5-1.1.6l-.7.9c-1.4 1.8-2.7 3.6-3.6 5.3-1.5 0-1.7.2-1.8.4 0 .1-.1.2-.1.2 0 .2.1.5.7.8.1.1.2.2.2.3 0 .2 0 .3-.2.4-1.3 2.1-2.5 4.7-3.6 7.7-1.4 3.6-2 6.4-2 8.3 0 1.3.1 2.3.8 3.1.7.9 1.6 1.3 2.6 1.3 1.6 0 3.5-1.1 5.6-3.3 2-2.1 3.2-4.1 3.4-6 0-.2-.1-.6-.5-.7-.3 0-.5.4-.6.5-.2 1.4-1 3.1-2.5 4.9-1.5 1.8-2.9 3-4.3 3.5-.4.2-.8.2-1.3.2-1.3 0-1.9-1.1-1.9-3.3v-1c.2-2.4 1.1-5.6 2.7-9.5 1-2.3 2-4.2 3.4-6.5.1-.1.1-.2.2-.2 0 0 2-.1 2.8-.2l2.4-.1c.4 0 .6-.5.6-.7V45.9c-.1-.1-.3-.2-.4-.2H100.9c2.5-4 4.3-6.1 5.3-6.3.1 0 .4-.1.4-.4-.2-.4-.4-.6-.7-.6z"/></g><path class="st2" d="M55.9 67.6l1.9 4 4.4.6-3.2 3.2.8 4.3-3.9-2-4 2 .8-4.3-3.2-3.2 4.4-.6zM43.1 67.3l1.4 2.8 3.1.4-2.3 2.2.6 3.1-2.8-1.5-2.8 1.5.6-3.1-2.3-2.2 3.1-.4zM34.9 61.4l.9 1.9 2.2.3-1.6 1.5.4 2.2-1.9-1-1.9 1 .3-2.2-1.5-1.5 2.1-.3zM68.6 67.3l1.4 2.8 3.1.4-2.2 2.2.5 3.1-2.8-1.5-2.7 1.5.5-3.1-2.2-2.2 3-.4z"/><path d="M31.6 41.2c4.8-8.4 13.9-14.1 24.2-14.1 10.5 0 19.6 5.8 24.4 14.3l-.1-.2C75 32.9 65.7 27.4 55.2 27.8c-10.4.4-19.2 6.4-23.7 15l.1-1.6z" fill="#cc2826" stroke="#cc2826" stroke-width=".481" stroke-linecap="round" stroke-linejoin="round" stroke-miterlimit="10"/></svg>