<?xml version="1.0" encoding="utf-8"?>
<!-- Generator: Adobe Illustrator 21.0.2, SVG Export Plug-In . SVG Version: 6.00 Build 0)  -->
<svg version="1.1" id="Calque_1" xmlns="http://www.w3.org/2000/svg" xmlns:xlink="http://www.w3.org/1999/xlink" x="0px" y="0px"
	 viewBox="0 0 110 110" style="enable-background:new 0 0 110 110;" xml:space="preserve">
<style type="text/css">
	.st0{fill:#CC2826;}
	.st1{fill:#CC2826;stroke:#CC2826;stroke-width:0.4812;stroke-linecap:round;stroke-linejoin:round;stroke-miterlimit:10;}
	.st2{fill:#FFFFFF;}
	.st3{fill:none;stroke:#FFFFFF;stroke-width:0.2385;stroke-miterlimit:10;}
	.st4{fill:#FFFFFF;stroke:#FFFFFF;stroke-width:0.25;stroke-linecap:round;stroke-linejoin:round;stroke-miterlimit:10;}
</style>
<polygon class="st0" points="71.3,64.8 98.3,69.1 100.3,68.4 105,11.2 13.3,10.5 21.6,56.9 48.2,61.1 "/>
<g>
	<path class="st0" d="M17.8,53.7l0.2,2.5c0.2,2.1-1.4,3.6-3.5,3.8l0,0c-2.2,0.2-4-1.1-4.1-3.1l-0.2-2.5L17.8,53.7z M11.9,56.7
		c0.1,1.2,1.1,1.9,2.5,1.8l0,0c1.4-0.1,2.2-1,2.1-2.2l-0.1-1.1l-4.6,0.4L11.9,56.7z"/>
	<path class="st0" d="M19.1,62.1l0.4,1.3l-6.7,4.9l-0.4-1.4l1.5-1.1l-0.8-2.7L11.3,63l-0.4-1.4L19.1,62.1z M15.2,64.9l2.2-1.5
		l-2.6-0.1L15.2,64.9z"/>
	<path class="st0" d="M20.4,66.5l0.6,1.2l-2.7,5l4.2-2.3l0.7,1.3l-6.8,3.7l-0.6-1.1l2.8-5.1l-4.3,2.3l-0.7-1.3L20.4,66.5z"/>
	<path class="st0" d="M24,72.6l0.9,1.1l-6.1,4.6l-0.9-1.1L24,72.6z"/>
	<path class="st0" d="M25.7,74.8l3.5,3.5l-1.1,1.1l-2.5-2.5L24.5,78l2.2,2.2l-1.1,1.1l-2.2-2.2l-1.1,1.1l2.5,2.5l-1.1,1.1l-3.5-3.5
		L25.7,74.8z"/>
	<path class="st0" d="M29.9,78.9l1.2,0.8l-3.6,5l2.7,1.9l-0.9,1.3l-3.8-2.7L29.9,78.9z"/>
	<path class="st0" d="M36.5,83.2l1.5,0.5l0.5,3.6l2.7-2.5l1.5,0.5l-2.6,7.2l-1.3-0.5l1.7-4.7l-2.9,2.5l0,0l-0.6-3.7l-1.7,4.7
		l-1.3-0.5L36.5,83.2z"/>
	<path class="st0" d="M42.9,89.5L42.9,89.5c0.3-2.2,2-3.8,4-3.5c2,0.3,3.2,2.2,2.9,4.4l0,0c-0.3,2.2-2,3.8-4,3.5
		C43.8,93.6,42.6,91.7,42.9,89.5z M48.3,90.2L48.3,90.2c0.2-1.3-0.5-2.5-1.7-2.7c-1.2-0.1-2.1,0.8-2.2,2.1l0,0
		c-0.2,1.3,0.5,2.5,1.7,2.6C47.2,92.4,48.1,91.5,48.3,90.2z"/>
	<path class="st0" d="M56.8,93.2c-0.5,0.5-1.1,0.8-1.9,0.8c-2,0.2-3.6-1.4-3.8-3.6l0,0c-0.2-2.2,1.1-4.1,3.1-4.3
		c2-0.2,3.6,1.4,3.8,3.6l0,0c0.1,0.8-0.1,1.6-0.4,2.3l0.7,0.6l-0.8,1.3L56.8,93.2z M55.6,92.1l-1.2-1l0.8-1.3l1.2,1
		c0.1-0.3,0.1-0.7,0.1-1.1l0,0c-0.1-1.3-1-2.3-2.2-2.2c-1.2,0.1-1.9,1.3-1.7,2.6l0,0c0.1,1.3,1,2.3,2.2,2.2
		C55.1,92.4,55.4,92.3,55.6,92.1z"/>
	<path class="st0" d="M59.6,89.9l-1.3-4.2l1.4-0.4l1.3,4.2c0.4,1.2,1.1,1.7,1.9,1.4c0.8-0.3,1.2-1,0.8-2.2l-1.3-4.2l1.4-0.4l1.3,4.2
		c0.7,2.2,0,3.7-1.7,4.2C61.6,92.8,60.2,92.1,59.6,89.9z"/>
	<path class="st0" d="M64.6,83.6l4.4-2.3l0.7,1.3l-3.1,1.6l0.7,1.4l2.7-1.4l0.7,1.3L68,87l0.8,1.4l3.1-1.7l0.7,1.3l-4.4,2.3
		L64.6,83.6z"/>
	<path class="st0" d="M71.9,81.1l-1.6,1.2l-1-1.2l4.3-3.3l1,1.2L73,80.2l3.7,4.9l-1.1,0.9L71.9,81.1z"/>
</g>
<path class="st1" d="M38.2,77.9c-7.8-4.1-12.9-11.2-14.8-19.1L23.2,59c1.6,7.9,6.5,15,14,19.3c9.4,5.4,20.6,5,29.4-0.1l0.9-1.5
	C59,82.2,47.8,83,38.2,77.9z"/>
<g>
	<path class="st0" d="M92.9,72.7c-7.5,16.6-24.1,27.4-42.4,27.4c-25.6,0-46.5-20.8-46.5-46.5c0-9.3,2.7-18.2,7.9-25.9l0.5,3.4
		c-4,6.8-6.1,14.5-6.1,22.5c0,24.4,19.9,44.3,44.3,44.3c17.2,0,32.9-10,40.2-25.6L92.9,72.7z"/>
</g>
<g>
	<path class="st2" d="M27.9,17.2h2.5l2.7,7.4l2.7-7.4h2.5l-4.2,10.6h-2L27.9,17.2z"/>
	<path class="st2" d="M39.8,23.2v-6h2.3v5.9c0,1.7,0.9,2.6,2.3,2.6c1.4,0,2.3-0.9,2.3-2.5v-6H49v5.9c0,3.2-1.8,4.7-4.6,4.7
		C41.6,27.9,39.8,26.3,39.8,23.2z"/>
	<path class="st2" d="M59.4,17.2h2.1l4.5,10.6h-2.4l-1-2.4h-4.4l-1,2.4h-2.4L59.4,17.2z M57.8,14.6l2-0.9l1.7,2.7h-1.7L57.8,14.6z
		 M61.9,23.3l-1.4-3.4l-1.4,3.4H61.9z"/>
	<path class="st2" d="M72.2,17.2h2.3v8.4h5.2v2.1h-7.5V17.2z"/>
	<path class="st2" d="M85.1,17.2h2.1l4.5,10.6h-2.4l-1-2.4h-4.4l-1,2.4h-2.4L85.1,17.2z M87.5,23.3l-1.4-3.4l-1.4,3.4H87.5z"/>
	<path class="st2" d="M38.5,36.1h-10v-5h27.3v5h-10v19.7h-7.2V36.1z"/>
	<path class="st2" d="M58.5,31.1h8l8.6,17.4l8.6-17.4h7.8L78.2,55.9h-6.4L58.5,31.1z"/>
</g>
<polygon class="st2" points="98.6,66.7 103,12.2 15.4,11.6 102.2,12.9 "/>
<g>
	<ellipse transform="matrix(0.1235 -0.9923 0.9923 0.1235 -16.5974 119.1338)" class="st0" cx="59.1" cy="69" rx="4" ry="22.5"/>
</g>
<path class="st0" d="M54.8,60.7c0,0,4.6,2.4,0,5.2l9.3,1.3c0,0-3.7-3.3,0.4-5.5L54.8,60.7z"/>
<path class="st3" d="M80.8,71.5c-0.5,1.8-10.4,2.3-22.2,0.9c-11.8-1.5-21.2-4.3-21.2-6.3"/>
<path class="st4" d="M55.9,67.2c0,0,2.9,2,6.8,0.9C62.8,68,58.6,70,55.9,67.2z"/>
</svg>
