<svg id="logo-daniel-moquet-hz" xmlns="http://www.w3.org/2000/svg" xmlns:xlink="http://www.w3.org/1999/xlink" viewBox="0 0 230 90"><style>.st0{fill:#DC7965;} .st1{fill:#DF322A;} .st2{fill:#21A350;} .st3{clip-path:url(#SVGID_2_);fill:#21A350;} .st4{clip-path:url(#SVGID_2_);fill:#FFFFFF;} .st5{fill:#FFFFFF;} .st6{clip-path:url(#SVGID_4_);fill:#FFFFFF;}</style><path class="st0" d="M2.4 73.3s8-1 11.9-5.9c3.9-5.6 3.4-12.6 5.1-15.9 0 0 3.3-7.9 12.1-9.9l.5-.1 8.7 1.3s-7.6 1.4-10.3 8.8c-1.1 5.8 2.4 13.9 1.9 17.3 0 0-.1 3.7-2.4 8.7 0 0 .4 1.7 1.7 1.7H2.4v-6z"></path><path class="st1" d="M40.5 42.8c-1.3.1-4.1 1.7-5.4 2.6-5.2 4-6.2 6.3-3.7 17.2.9 4 1.3 5.8.4 9.8 0 0-.5 1.8-1.7 4.9-.7 1.7 1.5 2.1 1.5 2.1h33.8V16.5H2.5v47.8l-.1 8.9c1.1-.2 2.2-.5 3.3-.7 3.9-1 7.5-2.9 9.4-6.3 2-3.6 2.6-7.6 3.3-11.6 1.2-5.9 5-10.2 11.2-12.7.8-.3 1.5-.5 2.1-.5"></path><path class="st2" d="M58.6 79.4c-.1 0-.1 0 0 0"></path><defs><path id="SVGID_1_" d="M0 5h230v77.7H0z"></path></defs><clipPath id="SVGID_2_"><use xlink:href="#SVGID_1_" overflow="visible"></use></clipPath><path class="st3" d="M83.8 27c2.2-1.6 3.6-3.7 3.6-6 0-4.7-5.6-8.6-12.9-9-1-3.2-8.1-5.7-16.6-5.7-9.3 0-16.8 2.9-16.8 6.5 0 .4.1.8.3 1.2-8.9 1.2-15.6 6.6-15.6 13.1 0 6.1 5.9 11.2 13.9 12.8-3.3 3.3-4.4 6.8-2.5 9.5 2.7 3.7 10.6 4.4 18.5 2 1.2 12.1 3.8 27.9 2.8 28h6.7c-.9 0-1.7-18.6-2.1-31.1.2-.1.3-.2.5-.3.7.2 1.5.4 2.3.6 10.4 2 22-5.8 22-13.1.2-3.3-1.4-6.2-4.1-8.5"></path><path class="st4" d="M86.6 27c-.5-1.2-1.6-2-2.6-2.7.5-.4 1.1-.7 1.3-1.3l.1.1c.3-.3.5-.7.8-1 1-1.9.8-4.2-.2-6-.4-.5-.6-1.2-1.1-1.5-.9-1.1-2.3-1.6-3.4-2.2-1.7-.5-3.3-1.1-5.2-1.3-.2 0-.2.3-.3.1-.5-.1-1.4 0-2 .1-.9-1.3-2.2-2.7-3.7-3.5C66.2 5 61 4.9 55.9 5.3c-6 1.1-13.7 2-15.9 9-1.3.7-2.8.7-4 1.5-1.9.7-3.8 1.5-5.4 2.8-1.6 1-3 2.6-4.1 4.2-2 2.5-2.2 6.1-.8 9 1.7 4 5.8 5.9 9.7 7 1.7.5 3.7.5 5.4.3-1.7 1.4-2.9 3.2-4.1 4.9 0 .1-.1.2-.1.3h-.1c-.4 0-1 .1-1.3.4-2 1.9-4.4 4.3-4.7 7.2-.1.4.1.9-.1 1.3.2 4 1.4 7.6 2.5 11.3.2.8.3 1.7.4 2.5.1 2.6-.5 5.2-1.4 7.5-.9 1.8-1.7 3.7-2.7 5.5.1.2-.2.4-.1.5.1-.1.1-.2.2-.2.1.5.3-.3.5-.4h.1l1.3-2.2c.4-.6.5-1.4 1.1-2 1.1-2.1 1.8-4.4 2-6.8.3-2.9-1-5.9-1.8-8.7-.7-3.2-1.7-6.2-.7-9.1.4-1.5 1.4-2.8 2.4-4.1.6-.6 1.2-1.4 1.9-1.8-.5 1.5-.5 3.2.4 4.5 2 2.9 5.6 4.2 8.9 3.8.1-.2.5 0 .5-.2l.1.1c2.6-.4 5.3-1.3 7.9-2.5.8-.4 1.9-.7 2.5-1.3 1.2-.4 2.4-1.2 3.5-1.8.1 1.2.3 2.5.5 3.7-.2.3-.3.7-.4 1.2-.1 3.4.7 6.2 1.3 9.3-.1.2.4.2.1.4.1.6.3 1.4.4 1.7 0 .3.1.5 0 .7.2.8.3 1.4.5 2.3.1 2 .6 3.8.8 5.8.3.3.2.9.3 1.1.1.3.4.4.4.8.2-.1-.1-.5.2-.5-.1-.9 0-2.2-.3-3.3-.1-2.1-.4-4.2-.8-6.2.1 0 0 .1.1.2.1-1.3-.2-2.8-.1-3.9 0-.2-.2-.5 0-.7h-.1c0-.1 0-.2.1-.3 0 0 .1.1 0 .1V60h-.1c-.1-.2.1-.3 0-.5v.1c-.2-.2.1-.3 0-.5 0 .1 0 .2-.1.2.1-.5-.1-1.2-.2-1.7 0 .1 0 .1-.1.1-.2-.3.1-.6-.1-1-.1-.1-.2 0-.1-.1 0 0 .1-.1.1 0 0-.3-.1-.6-.2-.8-.4-2.9-1-6-1.2-9.1 3.2 1.9 7.7 1.9 11.3 1.4C78.9 46.6 86.3 43 88 36c.4-3.2-.1-6.4-1.4-9m-.5 10.4c-1 2.3-3 4.4-5.1 6-5.3 3.4-13.6 4.9-19.7 2.2-.1-.1-.1-.1-.2-.1-.3-.5-1 0-1.2.3v.4c-1.5.6-3 1.8-4.4 2.4-3.1 1.6-6.1 2.7-9.5 3.4-3.1.7-6.6-.3-8.6-3-.8-1.4-.2-3.2.4-4.5 1.4-2.1 3.4-4.6 5.8-5.5.2-.3-.2-.5-.1-.8 1-.4 2-.7 2.9-1.4.3-.4.5-.6.4-1-2.2.6-4.3 1.6-6.7 2-3.5 1-6.6-.6-9.5-1.8-3.1-1.6-4.9-4.8-4.7-8.2.6-4.3 4.4-8.2 8.1-10 .2-.1.6-.4.7-.3.2-.1.3-.3.5-.2 1.4-.4 2.4-1.1 3.8-1.4 1.1-.5.6 1 1.1 1.4.4.6.9 1.3 1.7 1.3-.2-.8-1-1.7-.9-2.8 0-.1.1-.2.2-.1.3 0 .3-.2.4-.3.2-.3-.1-.5-.4-.7 1.3-4.1 5.7-6.1 9.4-7C55.6 6 62 5.3 66.8 7c2.2 1 4.6 2.2 5.9 4.4-.7.2-1.3.5-1.9.8h.2c-.1.2-.3.3-.5.4.8-.3 1.6 0 2.5-.3.2.4 0 .7.2 1.1.2.1.4.2.6.2.5-.4.4-1 .4-1.5 2.8-.4 5.7.5 8.1 1.7 2.2 1 3.4 3.5 3.4 5.8-.2 1.7-1.3 3.5-3 4.2-.7-.5-1.7-.7-2.5-.3h.2c-.2 0-.3.3-.3.4l.1.1c.3.5 1.1.1 1.4.5 1.5.5 3 1.5 3.8 3 1.4 2.9 2 6.7.7 9.9"></path><g><path class="st5" d="M64.2 73.9v.2s.1-.1 0-.2M63.1 60.5v0M18.5 56.9s0 .1 0 0c.1 0 0 0 0 0M18.7 56.3"></path></g><g><defs><path id="SVGID_3_" d="M0 5h230v77.7H0z"></path></defs><clipPath id="SVGID_4_"><use xlink:href="#SVGID_3_" overflow="visible"></use></clipPath><path class="st6" d="M29.9 41.4c-.7-.5-1.6-.2-2.2.1-3.2 2.5-6.4 5.6-7.9 9.8v.1c-.1.2-.1.5-.3.5-.4 1.3-.8 2.7-.8 4v.4c.1.2-.1.5-.1.7 0 .3-.1.7-.2 1.1 0 0-.1 0-.1-.1l-.2.6.1-.1c-.3 1.1-.7 2.2-1.3 3.3-1.3 3.1-3.9 5.5-6.7 6.9-3.1 2.3-7 3-10.2 4.8.1 0 .1 0 .1-.1l.1.2c.4 0 .8.2 1.2 0 4.8-1.6 9.5-3.7 13.4-6.8 3.3-3.5 4.7-8.1 5.2-12.6 1-3.9 3.3-8 6.5-10.6 1-.8 2-1.7 3.3-1.8.2-.1.2-.1.1-.4"></path></g><g><path class="st5" d="M18.6 56.2s.1 0 0 0c.1 0 .1-.1 0 0"></path><path class="st1" d="M70 78.7h45.1v.7H70zM111.1 77.5c-.8 0-1.3-.2-1.7-.4l.4-.8c.3.2.8.4 1.3.4s.9-.2.9-.6c0-1-2.3-.6-2.3-2.3 0-.8.6-1.4 1.8-1.4.6 0 1 .1 1.4.3v.9c-.4-.2-.8-.3-1.3-.3s-.8.1-.8.5c0 .9 2.3.6 2.3 2.3-.1.9-1 1.4-2 1.4M115.4 70.9c0 .4-.3.7-.7.7-.4 0-.7-.3-.7-.7 0-.4.3-.7.7-.7.4 0 .7.3.7.7m-1.3 1.5h1.1v5h-1.1v-5zM118.4 73.1c.6 0 1 .5 1 1 0 .6-.4 1-1 1s-1-.4-1-1c.1-.6.5-1 1-1m2.7 5.1c0-1.8-3.4-1.1-3.4-1.8 0-.2.1-.3.2-.5.2.1.4.1.6.1 1.1 0 2-.7 2-1.8 0-.5-.2-.9-.5-1.3.2-.1.4-.1.7 0l.3-.8c-.8-.1-1.2.1-1.5.4h-.1c-.2-.1-.5-.2-.9-.2-1.2 0-2 .9-2 1.8 0 .6.3 1.2.8 1.5-.4.3-.6.6-.6.9 0 .2.1.5.3.6-.5.2-.9.6-.9 1.2 0 .8.8 1.5 2.3 1.5 1.9 0 2.7-.8 2.7-1.6m-1.2.1c0 .5-.6.7-1.4.7-.9 0-1.4-.4-1.4-.8s.3-.6.5-.7c.6.2 2.3.1 2.3.8M125 77.4v-3c0-.5-.1-1.1-.8-1.1-.5 0-1 .3-1.4.6v3.5h-1.1v-5h.9l.1.6c.6-.4 1.1-.7 1.8-.7s1.5.5 1.5 1.8v3.3h-1zM130.2 74.3h-2.1c0-.6.4-1.2 1-1.2.8 0 1.1.7 1.1 1.2m1.2.8v-.3c0-1.5-.8-2.6-2.1-2.6s-2.2 1.2-2.2 2.6c0 1.4.7 2.6 2.4 2.6.6 0 1.2-.2 1.7-.5l-.3-.7c-.4.2-.8.3-1.2.3-.9 0-1.5-.6-1.5-1.4h3.2zM137.1 77.4h-.8l-2-5h1.1l1.3 3.6h.1l1.3-3.6h1.1zM141.9 73.2c.8 0 1.3.7 1.3 1.7s-.4 1.7-1.3 1.7c-.8 0-1.3-.7-1.3-1.7s.4-1.7 1.3-1.7m0-.9c-.7 0-1.3.3-1.7.7-.5.5-.7 1.1-.7 1.9 0 .8.3 1.5.7 2 .4.4 1 .6 1.7.6s1.3-.3 1.7-.7c.5-.5.7-1.1.7-1.9 0-.8-.2-1.4-.7-1.9-.4-.5-1-.7-1.7-.7M146.6 77.5c-.8 0-1.3-.2-1.7-.4l.4-.8c.3.2.8.4 1.3.4s.9-.2.9-.6c0-1-2.3-.6-2.3-2.3 0-.8.6-1.4 1.8-1.4.6 0 1 .1 1.4.3v.9c-.4-.2-.8-.3-1.3-.3s-.8.1-.8.5c0 .9 2.3.6 2.3 2.3-.1.9-1 1.4-2 1.4M154.8 76.2c-.2.2-.5.4-1 .4-.6 0-.9-.3-.9-.8s.3-.7 1.1-.7h.8v1.1zm1.2 1.2c-.1-.2-.1-.6-.1-1.5V74c0-1.3-.7-1.8-1.9-1.8-.6 0-1.2.1-1.9.6l.4.7c.3-.2.7-.4 1.3-.4.6 0 1 .3 1 .9v.1h-.9c-1.3.1-2.1.6-2.1 1.6s.7 1.6 1.6 1.6c.7 0 1.2-.3 1.5-.6l.2.5h.9zM158.1 77.5c-.7 0-1-.4-1-1V70h1.1v6c0 .4.1.5.4.5h.3l.1.8c-.3.1-.6.2-.9.2M160.8 77.5c-.7 0-1-.4-1-1V70h1.1v6c0 .4.1.5.4.5h.3l.1.8c-.3.1-.6.2-.9.2M165.4 74.3h-2.1c0-.6.4-1.2 1-1.2.7 0 1.1.7 1.1 1.2m.7-4h-1.3l-.9 1.5h.9l1.3-1.5zm.4 4.8v-.3c0-1.5-.8-2.6-2.1-2.6s-2.2 1.2-2.2 2.6c0 1.4.7 2.6 2.4 2.6.6 0 1.2-.2 1.7-.5l-.3-.7c-.4.2-.8.3-1.2.3-.9 0-1.5-.6-1.5-1.4h3.2zM170.4 74.3h-2.1c0-.6.4-1.2 1-1.2.8 0 1.1.7 1.1 1.2m1.2.8v-.3c0-1.5-.8-2.6-2.1-2.6s-2.2 1.2-2.2 2.6c0 1.4.7 2.6 2.4 2.6.6 0 1.2-.2 1.7-.5l-.3-.7c-.4.2-.8.3-1.2.3-.9 0-1.5-.6-1.5-1.4h3.2zM173.9 77.5c-.8 0-1.3-.2-1.7-.4l.4-.8c.3.2.8.4 1.3.4s.9-.2.9-.6c0-1-2.3-.6-2.3-2.3 0-.8.6-1.4 1.8-1.4.6 0 1 .1 1.4.3v.9c-.4-.2-.8-.3-1.3-.3s-.8.1-.8.5c0 .9 2.3.6 2.3 2.3-.1.9-1 1.4-2 1.4"></path><path d="M76.3 43.7c-1.8 1-2.9 2.5-3.1 4.3-.3 2.1.6 4.4 2.8 6.8.5.5.8.5.9.3.1-.1.3-.4-.2-1-1-1.3-3-3.9-2.3-6.6.4-1.4 1.4-2.5 2.9-3.3 3.3-1.6 8.2-1.1 10.4-.3 3.2 1.2 5.4 3.7 6 6.6.6 3-.6 6.2-3.1 8.5-2.1 1.9-5.7 3.2-8 2.8-.8-.1-1.4-.5-1.6-1-.2-.4-.2-1 0-1.5.9-2.6 5.6-10.8 7.3-13.2.2-.3.1-.6-.1-.7-.3-.2-1-.1-1.3.3-1.5 2-4.8 8.2-6.6 12.4-.3.1-.5.2-.6.4-.1.2-.2.3-.2.6 0 .2 0 .5.1.8v.2l-.1.4c-.2.7-.5 1.5-.6 2.1v.3c0 .2.1.4.2.5.1.1.2.1.3 0 .3-.1.3-.5.4-.7.1-.6.2-1 .4-1.4.4.9 1 1.4 2 1.7 2.8.7 7.3-1.7 9-3.2 3.1-2.6 4.6-6.3 4-9.7-.6-3.4-3.1-6.2-7-7.6-2.5-.8-8.3-.9-11.9 1.2M102.9 52.5c-.1.1-.2.2-.4.2H102.2c-.3-.1-.7-.2-1.1-.2-.4 0-.7.1-1 .2-1.2.5-2.6 1.7-4.1 3.4-1.7 2-2.5 3.6-2.5 4.9 0 1 .5 1.2.8 1.2.3 0 .5-.1.7-.3.9-.6 2.1-1.6 3.4-2.9.8-.8 1.4-1.4 1.9-2.1-.3.5-.5 1.1-.8 1.8-.3.8-.7 1.8-1 2.9v.2c0 .2.1.5.4.6.3 0 .5-.4.6-.5.4-.7.6-1.5.9-2.3.3-.7.5-1.4.8-2l1.9-3.5.6-1.1v-.1c0-.2-.1-.3-.1-.4-.1-.1-.2-.2-.3-.2l-.4.2zM97.3 56c1-1.3 1.9-2.1 2.5-2.3l.4-.1c.4 0 .8.3.8.5-2.1 3-4 5-5.6 6.1-.1.1-.2.1-.2.1s-.1 0-.1-.4c0-.2 0-.4.1-.5.5-.9 1.2-2.1 2.1-3.4M106.1 53.6c-.3.1-.6.2-.7.5-.6.9-1.3 2-2.1 3.3-.8 1.5-1.4 2.6-1.8 3.5-.1.1-.2.5 0 .7l-.1-.1c0 .1.1.4.6.3.7-.2 1.1-.4 1.3-.7 1.8-2.4 3.4-4.2 5.1-5.6.1 0 .1-.1.2-.1s.1 0 .1.1v.1c-.8 1.2-1.5 2.7-2.3 4.5-.9 2-1.3 3.6-1.4 4.8-.1 1.2.1 2 .6 2.6.4.5 1 .7 1.7.7 1.5-.2 1.8-.5 1.9-.8 0-.2-.1-.4-.3-.4h-.2c-.2.1-.7.2-.8.2-.5 0-1-.2-1.2-.4-.2-.2-.2-.6-.2-1v-.9c.1-1.2.5-2.8 1.3-4.8s1.8-3.8 2.8-5.4c.1-.2.2-.4.2-.5v-.1c0-.1-.1-.2-.3-.3-.2-.1-.5-.2-1 .1-.2.1-.4.3-.6.4-.5.3-1.5 1.1-2.3 1.8l-2.7 2.7v-.1c.6-1.6 1.4-3.1 2.5-4.5l.1-.3.1-.1h-.1c-.1-.3-.3-.2-.4-.2M114.9 48.6c-.3.1-.6.3-1 .8s-.6.8-.6 1.1c0 .2.1.6.7.7.4.1.8-.3 1.1-.5.4-.4.6-.8.7-1.2v-.1c0-.2-.1-.4-.2-.5-.2-.3-.5-.4-.7-.3m.2 2.1"></path><path d="M123.3 50.8c-.4-.4-.8-.5-1.3-.3-1.9.8-4.7 4.1-5.7 7.4l-.3.3c-.8.9-3.4 2.8-4.4 3.1-.3.1-.5.1-.6 0 0-.1-.2-.3.2-1.2l.5-1.2c0-.2.1-.3 2-4.5.3-.7.1-1.1 0-1.3-.2-.2-.5-.3-.8-.2-.3.1-.5.4-.6.7 0 .1-.3.7-.5 1.3-.8 1.8-1.9 4.5-1.9 5.8 0 .7.3 1.2.9 1.6.4.3.9.3 1.2.2 1.1-.6 3.1-2.1 4.1-3.1v.3c0 .8.4 1.5 1 2.1.5.4 1.1.6 1.6.5 1.1-.2 2.3-1.1 3.1-1.7.3-.2.2-.5.1-.6-.1-.2-.4-.2-.6 0-.8.5-1.9 1.1-2.9 1.2-.2 0-.6 0-.8-.2-.2-.2-.4-.6-.4-1.1v-.2c.1-1.5.9-2.9 1.6-4 .2 0 1.6-.4 1.6-.4 1.6-.3 2.9-1.1 3.4-2.1.2-.7 0-1.8-.5-2.4m-.7 1.9c-.6 1-1.9 1.8-3.3 2 1-1.3 2-2.2 2.8-2.7.3-.2.5-.2.6-.1 0 0 .1.1.1.2.1.1 0 .3-.2.6M140.3 40.5c-.4-1.6-1.5-2.6-3.2-3.2-1.7-.6-3.4-.4-5.1.5-4.8 2.6-7.5 9.8-8.3 21.9v1.1c0 1.4.2 2.6.6 3.6.4 1.1 1.1 1.4 1.6 1.4.9 0 1.9-.8 2.7-2.3.2-.4.4-.9.5-1.2.1-.4 0-.5-.2-.6-.1 0-.3-.1-.5.4-.1.4-.3.7-.5 1.1-.5.9-1.2 1.4-1.6 1.4-.4 0-.7-.6-.8-1.1-.3-.9-.4-2.2-.5-3.5 3.1-2.2 6.1-4.7 8.9-7.6 4.1-4.2 6.3-7.5 6.7-10.2v-.6c-.2-.5-.2-.8-.3-1.1m-1 1.2c-.2 2.3-2 5.3-5.2 8.8-2.6 2.8-5.7 5.6-9.3 8.3.2-3.5.7-6.9 1.5-10.1 1.4-5.4 3.4-8.8 6-10.2 1.5-.8 3-.9 4.4-.5 1.4.4 2.2 1.2 2.5 2.4.1.3.1.6.1.9.1.2 0 .3 0 .4M184.9 54.5l-2.5-.1h-1l-.1-.1c-.6-.4-1-.6-1.4-.6-.5 0-.9.3-1.3.7l-.1.1h-1c-.4 0-1 .1-1 .7 0 .4.4.6.8.9-1.8 2.6-3 4.7-3.4 6.4l-.4.4c-.4.6-1 1.2-1.8 2-.8.7-1.5 1.2-2 1.3h-.3c-.1 0-.2-.2-.2-.7v-.4c.3-2.4 1.4-5.6 3.2-9.4.7-1.4 2-3.9 4.1-7.8.2-.2.2-.5.2-.9 0-.6-.1-1.2-.4-1.9-.4-1-1.1-1.1-1.4-1.1-1.7.1-4.4 2.3-8.1 6.5-2.9 3.2-5.3 6.3-7.1 9.1-.1.1-.1.2-.1.2v-.1c2.2-5.3 3.5-9.3 3.8-11.7v-.2c0-.4-.2-.9-.5-1.2-.3-.3-.7-.5-1.1-.5-.9 0-2.2.9-4.1 2.7 1-3 1.6-5.2 1.6-6.7V42c0-.6-.3-1.2-.9-1.7-.6-.6-1.2-.8-1.9-.8-1.2.1-2.9.9-5 2.4-2 1.4-3.8 3-5.4 4.8-1.7 2-2.5 3.7-2.5 5 0 .9.6 1.9 1.1 2.1.2 0 .6.1.7-.2.1-.3-.1-.6-.4-.8h-.2c-.3-.1-.5-.3-.5-.5 0-1.7 1.6-4.1 4.8-6.9 3.1-2.8 5.6-4.3 7.4-4.5.6-.1 1 0 1.2.2.2.2.3.6.3 1.2 0 .7-.2 2-.7 3.7-.6 1.9-1.2 3.7-1.9 5.4-1.9 2.2-3.6 4.3-5 6.5-2 3.1-3 5.1-3 6.4 0 .3 0 1 .5 1 .2 0 .6-.1 1-.4.4-.2.7-.5.9-.7 2-2.5 4.2-6.6 6.7-12.2.6-.8 1.5-1.8 2.5-2.7 1.3-1.1 2.2-1.7 2.8-1.7.2 0 .3.1.3.1.1.1.1.3.1.6-.4 2.8-2.2 7.7-5.3 14.5V63.1c0 .2.1.6.7.6.5 0 .8-.2 1.1-.5 2.4-3.7 5.1-7.2 8.2-10.7 3.5-4 6-6.2 7.6-6.7.3-.1.6-.1.7-.1.5 0 .5.2.5.4s-.1.6-.3 1c-1.7 3.1-3.2 6.3-4.6 9.5-1.6 3.9-2.4 6.8-2.4 8.7 0 .6.2 1.1.5 1.7.4.8.9.8 1.2.7.8-.3 1.7-.9 2.6-1.8.5-.5 1-1 1.3-1.4.1.3.2.6.5.8.3.3.7.4 1 .3 1.6-.3 3.5-1.4 5.7-3.6 2.2-2.1 3.3-4 3.4-5.7l-.1-.3v-.1c.2-.2.5-.2.8-.2.5 0 .7-.2.7-.5-.5-.4-.5-.7-1.1-.7M152.1 58c-1.3 2.5-2.4 4.2-3.2 5.3 0 0 0 .1-.1.1 0-.1 0-.2.1-.4.5-1.6 1.5-3.5 2.9-5.7.8-1.3 1.6-2.3 2.3-3.2-.5 1.1-1.1 2.3-2 3.9m30.5-1.5c-.3 1.5-1.3 3.1-3 4.9-1.7 1.8-3.1 2.8-4.2 3h-.5c-.1-.1-.1-.2-.1-.3 0-.2 0-.4.1-.6 1-2.8 2.5-5.3 4.4-7.3s.1-.1.2-.1l.1-.1c.7-.3 1.4-.4 2.1-.3.4 0 .6.2.7.3.2.2.2.3.2.5M196.2 52.2c-.2-.1-.5-.2-1-.1-.3-.2-.6-.2-1-.2s-1.1.1-1.9.4c-1.4.5-3 1.5-5 3.2-2.4 2.1-4 4.4-4.7 6.7-.1.2-.1.5-.1.7 0 1.4.8 1.7 1.5 1.7.5 0 1.1-.2 1.7-.7 1.6-1.2 3.3-2.8 5-4.8.2-.1.3-.1.3-.1v.1c-.1.1-.8 1.3-1.3 2.3l-1 1.7c-4.8 8.2-8.6 19.4-8.6 19.5l.5.2c1.9-5.9 6.5-14.2 9.8-20.4l1.7-3.2c1.4-2.7 2.9-4.5 3.8-5.8l.2-.2c.1-.2.2-.4.2-.5 0-.3 0-.4-.1-.5m-3 2.8c-1 1.4-2.4 2.9-4 4.7-2.8 2.9-3.9 3.3-4.4 3.3-.1 0-.3 0-.3-.5 0-1.6 1.1-3.4 3.3-5.6 1.9-2 3.7-3.1 5.2-3.5.1 0 .2 0 .3.1.2.1.2.4.2.7 0 .3-.1.6-.3.8M212.9 51.1c-.4-.4-1-.6-1.5-.3-2.7 1.2-7 6.4-7.1 10.9 0 .2 0 .5.1.7-.1-.1-.4-.1-.7.2l-.8.4h-.2c-.1 0-.3.1-.4.1 0 0-.1-.1 0-.8.2-1.6 1.8-5.1 2.8-6.9.2-.4.1-1.3-.3-1.7-.1-.1-.5-.3-.9.2-.8.8-1.7 1.9-2.7 3.1-1.9 2.3-4 4.9-5.8 6.1-.3.2-.5.2-.6.2-.1-.1-.2-.5 0-1.4.5-2.1 2.7-6.1 4.4-8.5.5-.7.2-1.1 0-1.2-.3-.2-.9-.1-1.2.3-1.3 1.7-4.8 7.4-5 10.5 0 .7.2 1.4.7 1.7.4.3.8.3 1.3.1 1.1-.4 4.5-4.1 7.2-7.2l.2-.2v.1c0 .1 0 .2-.1.4l-.1.4c-.5 1.4-1.1 3.1-1.1 4.6 0 .6.5 1.3.9 1.6.3.2.6.3.8.2.6-.2 1.2-.8 1.5-1.2.2-.2.3-.4.3-.6.2.5.5.9.9 1.2.6.5 1.3.7 1.8.6 1.3-.3 2.8-1.3 3.7-2 .4-.3.2-.6.2-.6-.1-.2-.4-.2-.7 0-.9.6-2.3 1.3-3.5 1.5-.3 0-.7 0-1-.3-.3-.3-.5-.7-.5-1.4v-.2c.1-1.8 1.1-3.5 1.9-4.9.2 0 1.9-.5 2-.5 1.9-.3 3.5-1.3 4-2.5.4-.8.2-2.1-.5-2.7m-.6 2.2c-.7 1.2-2.5 2.2-4.1 2.4 1.3-1.6 2.5-2.8 3.5-3.4.4-.2.7-.3.8-.1.1.1.1.2.1.3-.1.2-.1.5-.3.8M228.4 36.9l-.6.3c-1.1.5-1.5.7-1.6.9l-1 1.3c-2.1 2.8-4.1 5.5-5.6 8.2v.1c-2.3 0-2.7.3-2.8.5 0 .1-.1.2-.1.3 0 .3.2.7 1 1 .2.1.3.3.3.6s-.1.5-.3.8c-2 3.3-3.8 7.2-5.5 11.8-2.1 5.6-3.1 9.7-3.1 12.7 0 1.9.2 3.4 1.2 4.7 1 1.3 2.3 2 3.8 2 2.4 0 5.2-1.6 8.4-5 3.1-3.2 4.8-6.3 5.2-9.1-.1-.4-.2-.8-.6-.9-.4 0-.7.5-.8.7-.3 2.2-1.6 4.7-3.8 7.4-2.3 2.8-4.5 4.6-6.6 5.4-.7.3-1.3.4-2 .4-2 0-3-1.7-3-5.2v-1.5c.3-3.8 1.7-8.6 4.2-14.5 1.7-3.9 3.5-7.1 5.2-10 .1-.2.3-.3.5-.4l4.3-.3 3.7-.2c.5 0 .8-.7.8-.9l-.1-.1c-.1-.2-.3-.2-.5-.2h-7.4-.1s0-.1.1-.3c3.8-6.1 6.6-9.4 8.2-9.8.2-.1.5-.1.5-.5 0-.3-.2-.5-.6-.5-.6 0-.9.2-1.3.3"></path><path class="st1" d="M121.6 78.7h53.9v.7h-53.9z"></path><path d="M119 16.9l-1.5 4.5-1.5-4.5h-1.2l-1.5 4.5-1.5-4.5h-2.5l-1.4 4.5-1.6-4.5h-1.1l-1.6 4.5-1.5-4.5H99.7l-1.5 4.5-1.5-4.5h-1.2L94 21.4l-1.5-4.5h-1.4l2.3 6.5h1.1l1.6-4.6 1.5 4.6h1.2l2.1-6 2.2 6h1.1l1.5-4.6 1.5 4.6h1.2l2.1-6 2.2 6h1.2l1.5-4.6 1.5 4.6h1.2l2.3-6.5zM121 23.5c-.5 0-.9-.4-.9-.9s.4-.9.9-.9.9.4.9.9-.4.9-.9.9M126.3 23.5c-2.2 0-3.6-1.3-3.6-3.3 0-1.9 1.6-3.5 3.6-3.5.3 0 .6 0 .9.1v-2.9h1.4V23l-.1.1c-.5.2-1.3.4-2.2.4m0-5.6c-1.3 0-2.2 1-2.2 2.2 0 1.4.9 2.2 2.3 2.2.2 0 .5 0 .7-.1V18c-.2 0-.4-.1-.8-.1M131.8 23.5c-1.1 0-2.2-.7-2.2-2.1 0-1.3 1-2.1 2.8-2.2h1.2v-.1c0-.8-.4-1.2-1.2-1.2-.8 0-1.2.3-1.6.5l-.2.1-.6-1 .1-.1c.8-.5 1.5-.7 2.4-.7 1.6 0 2.4.8 2.4 2.2v1.9c0 1.6 0 2.1.1 2.3l.1.3H134l-.2-.5c-.6.4-1.2.6-2 .6m1.8-3h-1.1c-1.3 0-1.5.5-1.5.9 0 .6.4.9 1.1.9.7 0 1.2-.3 1.5-.6v-1.2zM141.9 23.4h-1.4v-3.9c0-1-.3-1.4-1-1.4s-1.4.4-1.9.9v4.5h-1.4V17h1.2l.1.6c.7-.5 1.4-.8 2.2-.8 1 0 2.1.6 2.1 2.3v4.3zM144.9 23.4h-1.4v-6.5h1.4v6.5zm-.7-7.4c-.5 0-.9-.4-.9-.8 0-.5.4-.8.9-.8s.9.4.9.8-.4.8-.9.8M149.4 23.5c-2.2 0-3.2-1.8-3.2-3.5 0-1.9 1.2-3.3 2.8-3.3 1.7 0 2.8 1.3 2.8 3.3v.4h-4.2c.1.9.6 1.8 2 1.8.5 0 1.1-.2 1.5-.4l.2-.1.5 1-.1.1c-.6.4-1.5.7-2.3.7m-1.7-4.2h2.7c-.1-.7-.5-1.4-1.3-1.4s-1.4.6-1.4 1.4M154.3 23.5c-.8 0-1.3-.5-1.3-1.3v-8.3h1.4v7.9c0 .5.1.5.4.5h.5l.2 1-.1.1c-.5 0-.8.1-1.1.1M155.9 19.4h4v1.2h-4zM170.8 23.4h-1.4v-4.2c0-.9-.2-1.2-.9-1.2-.8 0-1.4.4-1.9.8v4.6h-1.4v-4.2c0-.9-.2-1.2-.9-1.2-.8 0-1.3.4-1.9.9v4.6H161V17h1.2l.1.6c.8-.5 1.5-.8 2.2-.8.7 0 1.4.3 1.7.9.7-.6 1.6-.9 2.3-.9 1.3 0 2.1.8 2.1 2.1v4.5zM175 23.5c-.9 0-1.6-.3-2.2-.8-.6-.6-1-1.5-1-2.6 0-1 .3-1.9 1-2.5.6-.5 1.3-.8 2.2-.8.9 0 1.6.3 2.2.8.6.6 1 1.5 1 2.5s-.4 2-1 2.6c-.5.5-1.3.8-2.2.8m0-5.6c-1.1 0-1.8.8-1.8 2.2 0 1.4.7 2.2 1.8 2.2s1.8-.9 1.8-2.2c0-1.4-.7-2.2-1.8-2.2M184.9 26.4h-1.4v-3.3c-.4.2-1 .4-1.6.4-1.5 0-2.9-1.1-2.9-3.2 0-2 1.6-3.5 3.7-3.5 1.1 0 2 .4 2.1.4h.1v9.2zm-2.3-8.5c-1.4 0-2.3.9-2.3 2.3s.9 2.1 1.7 2.1c.6 0 1.2-.3 1.4-.5V18c-.2 0-.5-.1-.8-.1M188.5 23.5c-.5 0-2.2-.2-2.2-2.3v-4.3h1.4v4.2c0 .9.3 1.2 1.1 1.2.7 0 1.3-.4 1.6-.7v-4.7h1.4v3.7c0 1.8 0 2.3.1 2.5l.1.2h-1.2l-.2-.5c-.5.3-1.2.7-2.1.7M201.7 23.5c-1 0-1.6-.6-1.6-1.5v-4H199v-1.2h1.1v-1.3l1.4-.4v1.7h2.1l-.5 1.2h-1.6v3.7c0 .5.2.6.5.6.4 0 .9-.3 1.1-.4l.2-.1.5 1-.1.1c-.7.4-1.4.6-2 .6M205.1 23.5c-.5 0-.9-.4-.9-.9s.4-.9.9-.9.9.4.9.9-.4.9-.9.9M210.1 23.5c-2.2 0-3.2-1.7-3.2-3.3 0-1.7 1.1-3.5 3.4-3.5.6 0 1.3.2 1.7.4l.1.1v1.3l-.3-.2c-.5-.3-1-.4-1.6-.4-1.2 0-2 .9-2 2.2 0 1.3.8 2.2 2 2.2.7 0 1.2-.2 1.5-.4l.2-.1.5 1-.1.1c-.4.2-1.2.6-2.2.6M215.8 23.5c-.9 0-1.6-.3-2.2-.8-.6-.6-1-1.5-1-2.6 0-1 .3-1.9 1-2.5.6-.5 1.3-.8 2.2-.8.9 0 1.6.3 2.2.8.6.6 1 1.5 1 2.5s-.4 2-1 2.6c-.5.5-1.3.8-2.2.8m0-5.6c-1.1 0-1.8.8-1.8 2.2 0 1.4.7 2.2 1.8 2.2s1.8-.9 1.8-2.2c0-1.4-.7-2.2-1.8-2.2M229.8 23.4h-1.4v-4.2c0-.9-.2-1.2-.9-1.2-.8 0-1.4.4-1.9.8v4.6h-1.4v-4.2c0-.9-.2-1.2-.9-1.2-.8 0-1.3.4-1.9.9v4.6H220V17h1.2l.1.6c.8-.5 1.5-.8 2.2-.8.7 0 1.4.3 1.7.9.7-.6 1.6-.9 2.3-.9 1.3 0 2.1.8 2.1 2.1v4.5zM196.2 23.5c-2.2 0-3.2-1.8-3.2-3.5 0-1.9 1.2-3.3 2.8-3.3 1.7 0 2.8 1.3 2.8 3.3v.4h-4.2c.1.9.6 1.8 2 1.8.5 0 1.1-.2 1.5-.4l.2-.1.5 1-.1.1c-.7.4-1.5.7-2.3.7m-1.8-4.2h2.7c-.1-.7-.5-1.4-1.3-1.4s-1.3.6-1.4 1.4"></path></g></svg>